<svg 
 xmlns="http://www.w3.org/2000/svg"
 xmlns:xlink="http://www.w3.org/1999/xlink"
 width="30px" height="30px">
<path fill-rule="evenodd"  fill="#a2adb6"
 d="M30.000,15.000 C30.000,6.729 23.271,-0.000 15.000,-0.000 C6.729,-0.000 -0.000,6.729 -0.000,15.000 C-0.000,19.368 1.878,23.306 4.869,26.050 L4.854,26.062 L5.341,26.472 C5.373,26.499 5.407,26.521 5.439,26.547 C5.697,26.761 5.965,26.965 6.238,27.162 C6.326,27.226 6.414,27.289 6.504,27.351 C6.796,27.552 7.095,27.743 7.400,27.923 C7.467,27.963 7.534,28.001 7.601,28.039 C7.935,28.229 8.277,28.409 8.626,28.573 C8.652,28.585 8.678,28.596 8.704,28.608 C9.843,29.138 11.060,29.527 12.332,29.757 C12.365,29.762 12.398,29.769 12.432,29.775 C12.827,29.843 13.226,29.897 13.630,29.934 C13.679,29.938 13.728,29.941 13.778,29.945 C14.181,29.979 14.588,30.000 15.000,30.000 C15.408,30.000 15.812,29.979 16.212,29.946 C16.263,29.942 16.313,29.939 16.364,29.935 C16.765,29.898 17.161,29.845 17.552,29.778 C17.586,29.772 17.620,29.766 17.654,29.760 C18.907,29.535 20.106,29.155 21.231,28.639 C21.272,28.620 21.314,28.602 21.356,28.582 C21.692,28.424 22.021,28.253 22.343,28.072 C22.424,28.026 22.503,27.980 22.583,27.934 C22.876,27.761 23.165,27.580 23.445,27.388 C23.546,27.319 23.645,27.247 23.745,27.175 C23.984,27.003 24.219,26.825 24.448,26.639 C24.498,26.598 24.553,26.562 24.603,26.520 L25.102,26.104 L25.087,26.091 C28.103,23.346 30.000,19.391 30.000,15.000 ZM1.091,15.000 C1.091,7.330 7.330,1.091 15.000,1.091 C22.670,1.091 28.909,7.330 28.909,15.000 C28.909,19.133 27.095,22.848 24.224,25.398 C24.064,25.287 23.902,25.188 23.737,25.105 L19.119,22.796 C18.704,22.589 18.447,22.172 18.447,21.709 L18.447,20.096 C18.554,19.964 18.666,19.814 18.783,19.650 C19.381,18.806 19.861,17.867 20.210,16.856 C20.901,16.528 21.347,15.839 21.347,15.062 L21.347,13.128 C21.347,12.655 21.174,12.197 20.864,11.836 L20.864,9.290 C20.892,9.007 20.992,7.410 19.836,6.092 C18.831,4.944 17.204,4.363 15.000,4.363 C12.796,4.363 11.169,4.944 10.163,6.091 C9.007,7.409 9.108,9.007 9.136,9.290 L9.136,11.836 C8.826,12.196 8.653,12.655 8.653,13.128 L8.653,15.061 C8.653,15.662 8.922,16.222 9.383,16.600 C9.825,18.331 10.734,19.641 11.070,20.085 L11.070,21.664 C11.070,22.109 10.828,22.518 10.437,22.732 L6.124,25.084 C5.986,25.159 5.850,25.246 5.714,25.344 C2.878,22.795 1.091,19.103 1.091,15.000 ZM23.159,26.254 C22.968,26.392 22.774,26.526 22.577,26.655 C22.487,26.713 22.397,26.772 22.305,26.830 C22.047,26.989 21.785,27.140 21.518,27.282 C21.459,27.313 21.400,27.343 21.340,27.373 C20.726,27.688 20.091,27.959 19.438,28.179 C19.415,28.186 19.392,28.194 19.368,28.202 C19.026,28.315 18.680,28.416 18.330,28.503 C18.329,28.503 18.328,28.504 18.327,28.504 C17.973,28.591 17.615,28.663 17.255,28.723 C17.246,28.725 17.236,28.727 17.226,28.728 C16.887,28.783 16.546,28.823 16.203,28.853 C16.143,28.859 16.082,28.862 16.021,28.867 C15.682,28.892 15.342,28.909 15.000,28.909 C14.654,28.909 14.309,28.892 13.966,28.866 C13.907,28.862 13.847,28.858 13.788,28.853 C13.443,28.822 13.098,28.781 12.757,28.725 C12.742,28.723 12.727,28.720 12.712,28.717 C11.991,28.597 11.281,28.420 10.590,28.188 C10.569,28.181 10.547,28.173 10.526,28.166 C10.182,28.049 9.843,27.920 9.510,27.777 C9.508,27.776 9.505,27.775 9.503,27.774 C9.188,27.638 8.878,27.487 8.573,27.329 C8.533,27.308 8.493,27.288 8.453,27.267 C8.175,27.118 7.902,26.957 7.633,26.789 C7.553,26.739 7.474,26.688 7.396,26.637 C7.148,26.475 6.904,26.307 6.666,26.128 C6.641,26.110 6.618,26.090 6.593,26.071 C6.611,26.061 6.628,26.052 6.646,26.042 L10.959,23.689 C11.700,23.285 12.161,22.509 12.161,21.664 L12.161,19.699 L12.035,19.547 C12.023,19.534 10.844,18.099 10.398,16.157 L10.349,15.941 L10.163,15.820 C9.900,15.651 9.743,15.367 9.743,15.061 L9.743,13.127 C9.743,12.874 9.851,12.638 10.047,12.460 L10.227,12.297 L10.227,9.259 L10.222,9.188 C10.221,9.175 10.060,7.863 10.984,6.810 C11.773,5.911 13.124,5.454 15.000,5.454 C16.869,5.454 18.216,5.907 19.007,6.799 C19.930,7.842 19.779,9.178 19.778,9.189 L19.773,12.299 L19.953,12.461 C20.148,12.638 20.256,12.875 20.256,13.128 L20.256,15.062 C20.256,15.451 19.992,15.804 19.612,15.921 L19.341,16.005 L19.254,16.275 C18.932,17.274 18.474,18.198 17.892,19.019 C17.750,19.221 17.610,19.400 17.491,19.537 L17.356,19.691 L17.356,21.709 C17.356,22.588 17.845,23.379 18.631,23.772 L23.249,26.081 C23.279,26.095 23.308,26.111 23.337,26.126 C23.278,26.170 23.218,26.211 23.159,26.254 Z"/>
</svg>