<svg 
 xmlns="http://www.w3.org/2000/svg"
 xmlns:xlink="http://www.w3.org/1999/xlink"
 width="30px" height="30px">
<path fill-rule="evenodd"  fill="rgb(237, 160, 50)"
 d="M14.988,30.000 C6.703,29.993 -0.007,23.273 -0.000,14.988 C0.006,6.703 6.726,-0.008 15.011,-0.001 C23.292,0.006 30.000,6.719 30.000,14.999 C29.987,23.283 23.272,29.993 14.988,30.000 ZM14.988,2.495 C8.082,2.495 2.484,8.094 2.484,14.999 C2.484,21.905 8.082,27.504 14.988,27.504 C21.894,27.504 27.492,21.905 27.492,14.999 C27.485,8.096 21.891,2.503 14.988,2.495 ZM21.258,17.020 C21.258,19.249 20.143,20.886 16.799,20.886 L16.451,20.886 L16.451,23.556 L14.860,23.556 L14.860,20.886 L13.769,20.886 L13.769,23.556 L12.132,23.556 L12.132,20.886 L8.974,20.886 L8.974,19.168 L10.216,19.168 C10.541,19.168 10.843,18.982 10.843,18.378 L10.843,11.145 C10.843,10.704 10.576,10.541 10.031,10.541 L8.812,10.541 L8.812,8.858 L12.086,8.858 L12.086,6.246 L13.711,6.246 L13.711,8.858 L14.802,8.858 L14.802,6.246 L16.428,6.246 L16.428,8.881 C18.076,9.020 20.166,9.682 20.398,11.435 C20.585,12.571 20.043,13.703 19.040,14.268 C20.319,14.575 21.231,15.705 21.258,17.020 ZM14.872,10.646 L13.711,10.646 L13.711,13.838 L15.859,13.838 C16.717,13.729 17.343,12.972 17.287,12.109 C17.287,10.785 15.685,10.646 14.872,10.646 ZM15.801,15.510 L13.711,15.510 L13.711,18.993 L15.511,18.993 L15.511,19.005 C17.252,19.005 18.123,18.274 18.123,16.973 C18.123,15.673 16.288,15.510 15.801,15.510 Z"/>
</svg>