<svg 
 xmlns="http://www.w3.org/2000/svg"
 xmlns:xlink="http://www.w3.org/1999/xlink"
 width="50px" height="47px">
<path fill-rule="evenodd"  fill="rgb(30, 61, 99)"
 d="M48.720,46.934 L1.320,47.000 C1.320,47.000 1.319,47.000 1.318,47.000 C0.979,47.000 0.654,46.865 0.414,46.624 C0.174,46.383 0.039,46.055 0.038,45.713 L-0.000,17.788 C-0.000,17.780 0.001,17.773 0.002,17.765 C0.008,17.363 0.199,16.970 0.553,16.723 L7.745,11.722 L7.745,6.420 C7.745,5.708 8.318,5.131 9.026,5.131 L17.224,5.131 L24.275,0.228 C24.714,-0.077 25.296,-0.076 25.733,0.231 L32.739,5.131 L40.974,5.131 C41.681,5.131 42.254,5.708 42.254,6.420 L42.254,11.786 L49.411,16.791 C49.667,16.970 49.838,17.226 49.915,17.507 C49.944,17.572 49.961,17.687 49.961,17.762 L49.999,45.644 C50.000,46.356 49.427,46.933 48.720,46.934 ZM44.900,44.363 L25.019,28.847 L5.066,44.418 L44.900,44.363 ZM7.745,14.854 L3.532,17.784 L7.745,20.714 L7.745,14.854 ZM2.564,20.245 L2.595,43.086 L18.059,31.018 L2.564,20.245 ZM25.001,2.856 L21.729,5.131 L28.254,5.131 L25.001,2.856 ZM39.693,7.708 L10.306,7.708 L10.306,22.495 L20.182,29.361 L24.234,26.199 C24.700,25.835 25.336,25.848 25.786,26.187 C25.792,26.191 25.797,26.194 25.804,26.199 L29.827,29.339 L39.693,22.438 L39.693,7.708 ZM42.254,14.924 L42.254,20.646 L46.346,17.784 L42.254,14.924 ZM47.403,20.183 L31.947,30.994 L47.434,43.081 L47.403,20.183 ZM15.051,20.848 C15.051,20.137 15.624,19.560 16.331,19.560 L33.668,19.560 C34.375,19.560 34.949,20.137 34.949,20.848 C34.949,21.559 34.375,22.136 33.668,22.136 L16.331,22.136 C15.624,22.136 15.051,21.559 15.051,20.848 ZM33.668,15.437 L16.331,15.437 C15.624,15.437 15.051,14.860 15.051,14.149 C15.051,13.438 15.624,12.861 16.331,12.861 L33.668,12.861 C34.375,12.861 34.949,13.438 34.949,14.149 C34.949,14.860 34.375,15.437 33.668,15.437 Z"/>
</svg>