<svg 
 xmlns="http://www.w3.org/2000/svg"
 xmlns:xlink="http://www.w3.org/1999/xlink"
 width="38px" height="50px">
<path fill-rule="evenodd"  fill="rgb(30, 61, 99)"
 d="M31.200,34.293 L37.878,48.236 C38.102,48.703 38.008,49.257 37.643,49.626 C37.402,49.869 37.078,49.997 36.749,49.997 C36.577,49.997 36.404,49.962 36.240,49.891 L27.874,46.214 L19.509,49.891 C19.185,50.033 18.815,50.033 18.492,49.891 L10.126,46.214 L1.760,49.891 C1.282,50.100 0.723,49.995 0.358,49.626 C-0.008,49.257 -0.102,48.703 0.121,48.236 L6.799,34.293 C6.927,34.026 7.148,33.813 7.421,33.694 L10.763,32.226 L5.006,22.703 C4.992,22.680 4.979,22.657 4.967,22.633 C3.824,20.431 3.227,17.949 3.242,15.458 C3.267,11.381 4.895,7.529 7.826,4.612 C10.757,1.695 14.646,0.057 18.777,0.001 C23.030,-0.058 27.038,1.533 30.064,4.478 C33.091,7.424 34.757,11.357 34.757,15.552 C34.757,18.046 34.177,20.429 33.033,22.633 C33.020,22.657 33.007,22.680 32.994,22.703 L27.237,32.226 L30.559,33.686 C30.836,33.802 31.067,34.015 31.200,34.293 ZM30.826,21.474 C31.776,19.630 32.258,17.638 32.258,15.552 C32.258,12.023 30.855,8.714 28.309,6.235 C25.763,3.757 22.390,2.421 18.812,2.468 C11.648,2.566 5.785,8.400 5.743,15.473 C5.730,17.587 6.212,19.605 7.174,21.474 L17.927,39.261 C18.255,39.804 18.787,39.862 19.000,39.862 C19.213,39.862 19.745,39.804 20.073,39.261 L30.826,21.474 ZM25.947,34.360 L22.220,40.525 C21.537,41.655 20.333,42.330 19.000,42.330 C17.666,42.330 16.463,41.655 15.779,40.525 L12.053,34.360 L8.861,35.762 L3.822,46.284 L9.617,43.737 C9.941,43.595 10.310,43.595 10.634,43.737 L19.000,47.413 L27.366,43.737 C27.689,43.595 28.059,43.595 28.383,43.737 L34.178,46.284 L29.138,35.762 L25.947,34.360 ZM13.296,15.552 C13.296,12.447 15.855,9.922 19.000,9.922 C22.146,9.922 24.705,12.447 24.705,15.552 C24.705,18.657 22.146,21.182 19.000,21.182 C15.855,21.182 13.296,18.657 13.296,15.552 ZM22.205,15.552 C22.205,13.808 20.767,12.389 19.000,12.389 C17.233,12.389 15.795,13.808 15.795,15.552 C15.795,17.296 17.233,18.715 19.000,18.715 C20.767,18.715 22.205,17.296 22.205,15.552 Z"/>
</svg>