<svg 
 xmlns="http://www.w3.org/2000/svg"
 xmlns:xlink="http://www.w3.org/1999/xlink"
 width="50px" height="50px">
<path fill-rule="evenodd"  fill="rgb(30, 61, 99)"
 d="M48.500,24.207 C47.672,24.207 47.000,23.536 47.000,22.708 C47.000,17.443 44.950,12.494 41.228,8.772 C37.505,5.049 32.556,2.999 27.291,2.999 C26.463,2.999 25.792,2.328 25.792,1.500 C25.792,0.672 26.463,0.000 27.291,0.000 C33.357,-0.000 39.059,2.362 43.349,6.651 C47.638,10.940 50.000,16.642 50.000,22.708 C50.000,23.536 49.328,24.207 48.500,24.207 ZM27.292,15.213 C27.292,15.213 27.292,15.213 27.292,15.213 C29.323,15.213 31.155,15.972 32.591,17.408 C34.027,18.844 34.786,20.677 34.786,22.707 C34.786,23.535 34.115,24.207 33.286,24.207 L33.286,24.207 C32.458,24.207 31.787,23.535 31.787,22.707 C31.787,21.489 31.332,20.390 30.470,19.529 C29.597,18.655 28.527,18.212 27.293,18.212 C27.292,18.212 27.292,18.212 27.292,18.212 C26.464,18.213 25.793,17.541 25.792,16.713 C25.792,15.885 26.464,15.213 27.292,15.213 ZM27.292,7.607 C31.325,7.606 35.118,9.177 37.970,12.030 C40.822,14.882 42.393,18.674 42.393,22.708 C42.393,23.536 41.721,24.207 40.893,24.207 C40.065,24.207 39.394,23.536 39.394,22.707 C39.394,19.475 38.135,16.436 35.849,14.150 C33.563,11.865 30.524,10.606 27.292,10.606 C26.464,10.606 25.792,9.934 25.792,9.106 C25.792,8.278 26.463,7.607 27.292,7.607 ZM18.131,18.485 C17.546,19.070 16.778,19.362 16.010,19.362 C15.730,19.362 15.450,19.322 15.178,19.244 L14.216,20.206 C14.216,20.206 14.216,20.206 14.216,20.206 C13.533,20.890 14.582,25.141 19.720,30.279 C24.859,35.418 29.110,36.466 29.793,35.783 C29.793,35.783 29.794,35.782 29.794,35.782 L30.755,34.821 C30.464,33.806 30.716,32.666 31.514,31.868 L34.062,29.320 C35.231,28.151 37.134,28.151 38.304,29.320 L48.101,39.117 C49.270,40.287 49.270,42.189 48.101,43.359 L45.553,45.907 C44.987,46.473 44.233,46.785 43.432,46.785 C43.146,46.785 42.867,46.743 42.599,46.666 L42.064,47.201 C40.208,49.058 37.617,50.000 34.511,50.000 C32.616,50.000 30.529,49.650 28.299,48.943 C22.746,47.183 16.864,43.390 11.736,38.263 C6.608,33.135 2.815,27.253 1.056,21.701 C-0.741,16.030 -0.233,11.287 2.478,8.274 C2.518,8.222 3.333,7.400 3.333,7.400 C3.042,6.384 3.294,5.245 4.092,4.446 L6.640,1.899 C7.207,1.332 7.959,1.020 8.761,1.020 C9.562,1.020 10.315,1.332 10.882,1.899 L20.679,11.696 C21.848,12.865 21.848,14.768 20.679,15.937 L18.131,18.485 ZM43.432,43.786 C43.433,43.787 45.980,41.238 45.980,41.238 L36.183,31.441 L33.635,33.989 L43.432,43.786 ZM4.919,10.055 L4.919,10.056 C2.761,12.213 2.404,16.027 3.915,20.795 C5.532,25.897 9.063,31.348 13.857,36.142 C18.651,40.936 24.102,44.467 29.205,46.084 C33.972,47.594 37.786,47.238 39.943,45.081 C39.943,45.081 39.944,45.080 39.944,45.080 L40.215,44.809 L32.611,37.206 L31.915,37.903 C31.915,37.903 31.914,37.903 31.914,37.904 C31.186,38.632 30.230,38.956 29.128,38.956 C25.851,38.956 21.285,36.085 17.599,32.400 C12.676,27.476 9.205,20.980 12.094,18.087 C12.094,18.086 12.095,18.086 12.095,18.085 L12.793,17.388 L5.189,9.785 L4.919,10.055 ZM8.761,4.019 L6.213,6.567 L11.112,11.466 L15.974,16.328 L16.011,16.364 C16.011,16.365 16.012,16.366 16.012,16.366 L18.558,13.817 L8.761,4.019 Z"/>
</svg>