<svg 
 xmlns="http://www.w3.org/2000/svg"
 xmlns:xlink="http://www.w3.org/1999/xlink"
 width="22px" height="30px">
<path fill-rule="evenodd"  fill="rgb(157, 169, 178)"
 d="M21.168,30.000 L3.804,30.000 C3.345,30.000 2.972,29.606 2.972,29.121 L2.972,27.002 L18.767,26.997 C19.226,26.997 19.599,26.603 19.599,26.117 L19.599,4.448 L21.168,4.448 C21.627,4.448 22.000,4.842 22.000,5.327 L22.000,29.121 C22.000,29.606 21.627,30.000 21.168,30.000 ZM-0.000,0.879 C-0.000,0.394 0.372,-0.000 0.832,-0.000 L12.768,-0.000 L12.768,5.327 C12.768,5.813 13.141,6.207 13.600,6.207 L17.934,6.207 L17.934,25.238 L-0.000,25.243 L-0.000,0.879 ZM14.433,0.530 L17.927,4.448 L14.433,4.448 L14.433,0.530 Z"/>
</svg>