<svg 
 xmlns="http://www.w3.org/2000/svg"
 xmlns:xlink="http://www.w3.org/1999/xlink"
 width="26px" height="26px">
<path fill-rule="evenodd"  fill="#0a365a"
 d="M12.949,26.000 C5.739,26.000 -0.000,20.053 -0.000,12.949 C-0.000,5.792 5.792,-0.000 12.949,-0.000 C20.046,-0.000 26.000,5.732 26.000,12.949 C26.000,20.114 20.091,26.000 12.949,26.000 ZM12.949,1.513 C6.649,1.513 1.513,6.649 1.513,12.949 C1.513,19.305 6.649,24.487 12.949,24.487 C19.305,24.487 24.487,19.305 24.487,12.949 C24.487,6.649 19.305,1.513 12.949,1.513 ZM18.383,16.758 C17.348,16.758 16.432,16.238 15.881,15.447 C15.136,16.269 14.088,16.758 12.949,16.758 C10.849,16.758 9.141,15.049 9.141,12.949 C9.141,10.849 10.849,9.141 12.949,9.141 C13.816,9.141 14.648,9.426 15.336,9.951 L15.336,9.902 C15.336,9.482 15.677,9.141 16.098,9.141 C16.518,9.141 16.859,9.482 16.859,9.902 C16.859,10.300 16.859,13.334 16.859,13.711 C16.859,14.551 17.543,15.234 18.383,15.234 C19.223,15.234 19.906,14.551 19.906,13.711 L19.906,12.949 C19.906,9.169 16.785,6.084 12.949,6.084 C9.169,6.084 6.094,9.169 6.094,12.949 C6.094,16.785 9.169,19.916 12.949,19.916 C14.493,19.916 16.049,19.392 17.219,18.494 C17.552,18.238 18.031,18.301 18.287,18.635 C18.543,18.969 18.480,19.447 18.146,19.703 C16.716,20.800 14.822,21.430 12.949,21.430 C8.321,21.430 4.570,17.587 4.570,12.949 C4.570,8.329 8.329,4.570 12.949,4.570 C17.581,4.570 21.430,8.315 21.430,12.949 L21.430,13.711 C21.430,15.391 20.063,16.758 18.383,16.758 ZM12.949,10.654 C11.689,10.654 10.664,11.689 10.664,12.949 C10.664,14.209 11.689,15.245 12.949,15.245 C14.243,15.245 15.336,14.188 15.336,12.949 C15.336,11.710 14.243,10.654 12.949,10.654 Z"/>
</svg>