<svg 
 xmlns="http://www.w3.org/2000/svg"
 xmlns:xlink="http://www.w3.org/1999/xlink"
 width="60px" height="74px">
<path fill-rule="evenodd"  fill="rgb(149, 21, 69)"
 d="M30.410,73.939 C30.277,73.979 30.138,74.000 30.000,74.000 C29.862,74.000 29.724,73.979 29.590,73.939 C11.842,68.555 -0.000,52.084 -0.000,33.703 L-0.000,10.117 C-0.000,9.319 0.640,8.672 1.429,8.672 C5.367,8.672 8.571,5.430 8.571,1.445 C8.571,0.647 9.211,-0.000 10.000,-0.000 L50.000,-0.000 C50.789,-0.000 51.429,0.647 51.429,1.445 C51.429,5.430 54.633,8.672 58.571,8.672 C59.360,8.672 60.000,9.319 60.000,10.117 L60.000,33.703 C60.000,52.486 47.774,68.669 30.410,73.939 ZM57.143,11.460 C52.770,10.824 49.301,7.315 48.673,2.891 L11.327,2.891 C10.699,7.315 7.230,10.824 2.857,11.460 L2.857,33.703 C2.857,50.873 13.875,65.959 30.000,71.043 C46.254,65.918 57.143,50.967 57.143,33.703 L57.143,11.460 ZM30.476,67.837 C30.322,67.892 30.161,67.919 30.000,67.919 C29.839,67.919 29.678,67.892 29.523,67.837 C15.187,62.704 5.714,49.199 5.714,33.703 L5.714,14.692 C5.714,14.118 6.050,13.598 6.570,13.368 C9.549,12.047 11.908,9.661 13.213,6.646 C13.441,6.121 13.954,5.781 14.521,5.781 L24.289,5.781 C25.077,5.781 25.717,6.428 25.717,7.226 C25.717,8.025 25.077,8.672 24.289,8.672 L15.425,8.672 C13.915,11.661 11.526,14.078 8.571,15.605 L8.571,33.703 C8.571,47.847 16.964,60.052 30.000,64.937 C43.036,60.052 51.429,47.847 51.429,33.703 L51.429,15.605 C48.474,14.078 46.084,11.661 44.575,8.672 L35.711,8.672 C34.923,8.672 34.283,8.025 34.283,7.226 C34.283,6.428 34.923,5.781 35.711,5.781 L45.479,5.781 C46.046,5.781 46.559,6.121 46.787,6.646 C48.092,9.661 50.451,12.047 53.430,13.368 C53.950,13.598 54.286,14.117 54.286,14.692 L54.286,33.703 C54.286,49.211 44.801,62.708 30.476,67.837 ZM42.857,34.109 C42.857,41.282 37.089,47.117 30.000,47.117 C22.911,47.117 17.143,41.282 17.143,34.109 C17.143,26.937 22.911,21.101 30.000,21.101 C37.089,21.101 42.857,26.937 42.857,34.109 ZM20.000,34.109 C20.000,39.688 24.486,44.226 30.000,44.226 C35.514,44.226 40.000,39.688 40.000,34.109 C40.000,28.531 35.514,23.992 30.000,23.992 C24.486,23.992 20.000,28.531 20.000,34.109 ZM36.724,30.196 C37.282,30.761 37.282,31.676 36.724,32.241 L29.582,39.467 C29.303,39.749 28.937,39.891 28.571,39.891 C28.206,39.891 27.840,39.749 27.561,39.467 L24.704,36.577 C24.146,36.012 24.146,35.097 24.704,34.532 C25.262,33.968 26.166,33.968 26.724,34.532 L28.571,36.401 L34.704,30.196 C35.262,29.632 36.166,29.632 36.724,30.196 ZM29.857,8.663 C29.126,8.589 28.573,7.970 28.573,7.226 C28.573,6.427 29.209,5.783 30.000,5.783 C30.790,5.783 31.427,6.426 31.427,7.226 C31.427,8.081 30.704,8.748 29.857,8.663 Z"/>
</svg>