<svg 
 xmlns="http://www.w3.org/2000/svg"
 xmlns:xlink="http://www.w3.org/1999/xlink"
 width="77px" height="76px">
<path fill-rule="evenodd"  fill="rgb(149, 21, 69)"
 d="M73.410,-0.000 L3.590,-0.000 C1.607,-0.000 -0.000,1.621 -0.000,3.620 L-0.000,14.318 C-0.000,16.317 1.607,17.938 3.590,17.938 L14.264,17.938 L14.264,32.417 C12.381,34.589 4.467,44.017 3.510,50.259 C3.504,50.339 3.504,50.420 3.510,50.500 L3.510,74.391 C3.510,75.279 4.225,76.000 5.106,76.000 L24.443,76.000 C24.966,75.999 25.454,75.740 25.752,75.308 L33.921,63.451 C34.023,63.299 34.099,63.130 34.144,62.952 C34.144,62.695 34.990,59.831 35.931,55.906 L61.140,55.906 C62.022,55.906 62.736,55.186 62.736,54.297 L62.736,17.938 L73.410,17.938 C75.393,17.938 77.000,16.317 77.000,14.318 L77.000,3.620 C77.000,1.621 75.393,-0.000 73.410,-0.000 ZM36.011,38.804 C34.835,46.567 33.210,54.254 31.145,61.826 L23.598,72.766 L6.685,72.766 L6.685,50.693 C7.307,47.025 11.200,41.395 14.264,37.517 L14.264,54.297 C14.264,55.186 14.978,55.906 15.859,55.906 L21.619,55.906 C21.816,55.904 22.011,55.866 22.194,55.793 L22.369,55.697 C22.483,55.640 22.591,55.570 22.688,55.488 L22.832,55.327 C22.906,55.237 22.970,55.140 23.023,55.037 L23.119,54.828 C23.119,54.828 23.119,54.828 23.119,54.715 C24.715,48.763 28.193,38.483 30.825,36.198 C32.612,34.589 33.650,34.412 34.096,34.412 C34.433,34.405 34.754,34.560 34.958,34.831 C35.739,35.999 36.110,37.398 36.011,38.804 ZM59.545,52.688 L36.697,52.688 C37.686,48.328 38.691,43.309 39.186,39.190 C39.381,36.895 38.740,34.608 37.383,32.755 C36.584,31.814 35.420,31.269 34.192,31.259 C32.160,31.440 30.258,32.347 28.831,33.817 C25.129,37.034 21.587,48.763 20.455,52.753 L17.455,52.753 L17.455,10.650 L59.545,10.650 L59.545,52.688 ZM73.809,14.302 C73.809,14.524 73.630,14.704 73.410,14.704 L62.736,14.704 L62.736,10.650 L65.624,10.650 C66.505,10.650 67.219,9.930 67.219,9.041 C67.219,8.153 66.505,7.433 65.624,7.433 L11.376,7.433 C10.495,7.433 9.780,8.153 9.780,9.041 C9.780,9.930 10.495,10.650 11.376,10.650 L14.280,10.650 L14.280,14.785 L3.590,14.785 C3.369,14.785 3.191,14.605 3.191,14.383 L3.191,3.620 C3.191,3.398 3.369,3.218 3.590,3.218 L73.410,3.218 C73.630,3.218 73.809,3.398 73.809,3.620 L73.809,14.302 Z"/>
</svg>