<svg 
 xmlns="http://www.w3.org/2000/svg"
 xmlns:xlink="http://www.w3.org/1999/xlink"
 width="77px" height="75px">
<path fill-rule="evenodd"  fill="rgb(149, 21, 69)"
 d="M71.086,51.844 L38.500,51.844 L5.914,51.844 C2.653,51.844 -0.000,49.165 -0.000,45.872 L-0.000,30.600 C-0.000,28.696 0.902,27.018 2.280,25.922 C0.902,24.829 -0.000,23.150 -0.000,21.246 L-0.000,5.975 C-0.000,2.682 2.653,0.003 5.914,0.003 L71.086,0.003 C74.347,0.003 77.000,2.682 77.000,5.975 L77.000,21.246 C77.000,23.150 76.098,24.829 74.719,25.924 C76.098,27.018 77.000,28.696 77.000,30.600 L77.000,45.872 C77.000,49.165 74.347,51.844 71.086,51.844 ZM74.433,5.975 C74.433,4.111 72.932,2.595 71.085,2.595 L5.914,2.595 C4.068,2.595 2.567,4.111 2.567,5.975 L2.567,21.246 C2.567,23.111 4.068,24.628 5.914,24.628 L5.914,24.627 L71.086,24.627 C72.932,24.627 74.433,23.110 74.433,21.246 L74.433,5.975 ZM74.433,30.600 C74.433,28.736 72.932,27.220 71.085,27.220 L5.914,27.220 C4.068,27.220 2.567,28.736 2.567,30.600 L2.567,45.872 C2.567,47.737 4.068,49.253 5.914,49.252 L71.086,49.252 C72.932,49.252 74.433,47.735 74.433,45.872 L74.433,30.600 ZM66.733,41.477 C66.024,41.477 65.450,40.896 65.450,40.181 C65.450,39.465 66.024,38.884 66.733,38.884 C67.442,38.884 68.017,39.465 68.017,40.181 C68.017,40.896 67.442,41.477 66.733,41.477 ZM64.167,37.588 C63.458,37.588 62.883,37.008 62.883,36.292 C62.883,35.576 63.458,34.996 64.167,34.996 C64.875,34.996 65.450,35.576 65.450,36.292 C65.450,37.008 64.875,37.588 64.167,37.588 ZM61.600,41.477 C60.891,41.477 60.317,40.896 60.317,40.181 C60.317,39.465 60.891,38.884 61.600,38.884 C62.309,38.884 62.883,39.465 62.883,40.181 C62.883,40.896 62.309,41.477 61.600,41.477 ZM59.033,37.588 C58.325,37.588 57.750,37.008 57.750,36.292 C57.750,35.576 58.325,34.996 59.033,34.996 C59.742,34.996 60.317,35.576 60.317,36.292 C60.317,37.008 59.742,37.588 59.033,37.588 ZM56.467,41.477 C55.758,41.477 55.183,40.896 55.183,40.181 C55.183,39.465 55.758,38.884 56.467,38.884 C57.175,38.884 57.750,39.465 57.750,40.181 C57.750,40.896 57.175,41.477 56.467,41.477 ZM53.900,37.588 C53.191,37.588 52.617,37.008 52.617,36.292 C52.617,35.576 53.191,34.996 53.900,34.996 C54.609,34.996 55.183,35.576 55.183,36.292 C55.183,37.008 54.609,37.588 53.900,37.588 ZM51.333,41.477 C50.624,41.477 50.050,40.896 50.050,40.181 C50.050,39.465 50.624,38.884 51.333,38.884 C52.042,38.884 52.617,39.465 52.617,40.181 C52.617,40.896 52.042,41.477 51.333,41.477 ZM48.767,37.588 C48.058,37.588 47.483,37.008 47.483,36.292 C47.483,35.576 48.058,34.996 48.767,34.996 C49.475,34.996 50.050,35.576 50.050,36.292 C50.050,37.008 49.475,37.588 48.767,37.588 ZM46.200,41.477 C45.491,41.477 44.917,40.896 44.917,40.181 C44.917,39.465 45.491,38.884 46.200,38.884 C46.909,38.884 47.483,39.465 47.483,40.181 C47.483,40.896 46.909,41.477 46.200,41.477 ZM43.633,37.588 C42.925,37.588 42.350,37.008 42.350,36.292 C42.350,35.576 42.925,34.996 43.633,34.996 C44.342,34.996 44.917,35.576 44.917,36.292 C44.917,37.008 44.342,37.588 43.633,37.588 ZM13.475,44.069 C10.291,44.069 7.700,41.453 7.700,38.237 C7.700,35.020 10.291,32.404 13.475,32.404 C16.659,32.404 19.250,35.021 19.250,38.237 C19.250,41.452 16.659,44.069 13.475,44.069 ZM13.475,34.996 C11.707,34.996 10.267,36.449 10.267,38.237 C10.267,40.024 11.707,41.477 13.475,41.477 C15.243,41.477 16.683,40.024 16.683,38.237 C16.683,36.449 15.243,34.996 13.475,34.996 ZM66.733,16.851 C66.024,16.851 65.450,16.271 65.450,15.555 C65.450,14.840 66.024,14.259 66.733,14.259 C67.442,14.259 68.017,14.840 68.017,15.555 C68.017,16.271 67.442,16.851 66.733,16.851 ZM64.167,12.963 C63.458,12.963 62.883,12.383 62.883,11.667 C62.883,10.951 63.458,10.371 64.167,10.371 C64.875,10.371 65.450,10.951 65.450,11.667 C65.450,12.383 64.875,12.963 64.167,12.963 ZM61.600,16.851 C60.891,16.851 60.317,16.271 60.317,15.555 C60.317,14.840 60.891,14.259 61.600,14.259 C62.309,14.259 62.883,14.840 62.883,15.555 C62.883,16.271 62.309,16.851 61.600,16.851 ZM59.033,12.963 C58.325,12.963 57.750,12.383 57.750,11.667 C57.750,10.951 58.325,10.371 59.033,10.371 C59.742,10.371 60.317,10.951 60.317,11.667 C60.317,12.383 59.742,12.963 59.033,12.963 ZM56.467,16.851 C55.758,16.851 55.183,16.271 55.183,15.555 C55.183,14.840 55.758,14.259 56.467,14.259 C57.175,14.259 57.750,14.840 57.750,15.555 C57.750,16.271 57.175,16.851 56.467,16.851 ZM53.900,12.963 C53.191,12.963 52.617,12.383 52.617,11.667 C52.617,10.951 53.191,10.371 53.900,10.371 C54.609,10.371 55.183,10.951 55.183,11.667 C55.183,12.383 54.609,12.963 53.900,12.963 ZM51.333,16.851 C50.624,16.851 50.050,16.271 50.050,15.555 C50.050,14.840 50.624,14.259 51.333,14.259 C52.042,14.259 52.617,14.840 52.617,15.555 C52.617,16.271 52.042,16.851 51.333,16.851 ZM48.767,12.963 C48.058,12.963 47.483,12.383 47.483,11.667 C47.483,10.951 48.058,10.371 48.767,10.371 C49.475,10.371 50.050,10.951 50.050,11.667 C50.050,12.383 49.475,12.963 48.767,12.963 ZM46.200,16.851 C45.491,16.851 44.917,16.271 44.917,15.555 C44.917,14.840 45.491,14.259 46.200,14.259 C46.909,14.259 47.483,14.840 47.483,15.555 C47.483,16.271 46.909,16.851 46.200,16.851 ZM43.633,12.963 C42.925,12.963 42.350,12.383 42.350,11.667 C42.350,10.951 42.925,10.371 43.633,10.371 C44.342,10.371 44.917,10.951 44.917,11.667 C44.917,12.383 44.342,12.963 43.633,12.963 ZM13.475,19.444 C10.291,19.444 7.700,16.827 7.700,13.611 C7.700,10.396 10.291,7.779 13.475,7.779 C16.659,7.779 19.250,10.396 19.250,13.611 C19.250,16.827 16.659,19.444 13.475,19.444 ZM13.475,10.371 C11.707,10.371 10.267,11.824 10.267,13.611 C10.267,15.399 11.707,16.851 13.475,16.851 C15.243,16.851 16.683,15.399 16.683,13.611 C16.683,11.824 15.243,10.371 13.475,10.371 ZM1.283,67.398 L2.567,67.398 C3.275,67.398 3.850,67.977 3.850,68.694 C3.850,69.411 3.275,69.990 2.567,69.990 L1.283,69.990 C0.575,69.990 -0.000,69.411 -0.000,68.694 C-0.000,67.977 0.575,67.398 1.283,67.398 ZM6.417,67.398 L7.700,67.398 C8.408,67.398 8.983,67.977 8.983,68.694 C8.983,69.411 8.408,69.990 7.700,69.990 L6.417,69.990 C5.708,69.990 5.133,69.411 5.133,68.694 C5.133,67.977 5.708,67.398 6.417,67.398 ZM11.550,67.398 L12.833,67.398 C13.542,67.398 14.117,67.977 14.117,68.694 C14.117,69.411 13.542,69.990 12.833,69.990 L11.550,69.990 C10.842,69.990 10.267,69.411 10.267,68.694 C10.267,67.977 10.842,67.398 11.550,67.398 ZM16.683,67.398 L17.967,67.398 C18.675,67.398 19.250,67.977 19.250,68.694 C19.250,69.411 18.675,69.990 17.967,69.990 L16.683,69.990 C15.975,69.990 15.400,69.411 15.400,68.694 C15.400,67.977 15.975,67.398 16.683,67.398 ZM21.817,67.398 L23.100,67.398 C23.808,67.398 24.383,67.977 24.383,68.694 C24.383,69.411 23.808,69.990 23.100,69.990 L21.817,69.990 C21.108,69.990 20.533,69.411 20.533,68.694 C20.533,67.977 21.108,67.398 21.817,67.398 ZM26.950,67.398 L28.233,67.398 C28.942,67.398 29.517,67.977 29.517,68.694 C29.517,69.411 28.942,69.990 28.233,69.990 L26.950,69.990 C26.242,69.990 25.667,69.411 25.667,68.694 C25.667,67.977 26.242,67.398 26.950,67.398 ZM32.290,67.057 C32.468,66.364 33.169,65.950 33.856,66.129 C34.542,66.311 34.953,67.018 34.774,67.710 C34.692,68.029 34.650,68.360 34.650,68.694 C34.650,69.411 34.076,70.006 33.367,70.004 C32.657,70.004 32.083,69.440 32.083,68.724 L33.367,68.724 L32.083,68.721 C32.083,68.139 32.153,67.589 32.290,67.057 ZM35.791,71.454 C36.028,71.693 36.296,71.899 36.588,72.067 C37.202,72.424 37.415,73.216 37.065,73.837 C36.828,74.254 36.395,74.489 35.950,74.489 C35.733,74.489 35.515,74.434 35.313,74.318 C34.827,74.036 34.379,73.691 33.981,73.292 C33.478,72.788 33.476,71.968 33.976,71.460 C34.477,70.954 35.288,70.949 35.791,71.454 ZM35.901,65.520 C35.462,65.520 35.034,65.290 34.794,64.881 C34.434,64.264 34.638,63.470 35.249,63.107 C35.732,62.820 36.250,62.597 36.789,62.448 C37.473,62.260 38.179,62.663 38.369,63.353 C38.558,64.042 38.156,64.756 37.473,64.946 C37.150,65.036 36.841,65.169 36.551,65.341 C36.346,65.463 36.122,65.520 35.901,65.520 ZM38.500,55.733 C37.792,55.733 37.217,55.154 37.217,54.437 L37.217,53.141 C37.217,52.425 37.792,51.845 38.500,51.845 C39.208,51.845 39.783,52.425 39.783,53.141 L39.783,54.437 C39.783,55.154 39.208,55.733 38.500,55.733 ZM37.217,59.622 L37.217,58.325 C37.217,57.609 37.792,57.030 38.500,57.030 C39.208,57.030 39.783,57.609 39.783,58.325 L39.783,59.622 C39.783,60.338 39.208,60.917 38.500,60.917 C37.792,60.917 37.217,60.338 37.217,59.622 ZM39.507,72.449 C39.831,72.361 40.141,72.231 40.430,72.060 C41.042,71.701 41.828,71.908 42.184,72.528 C42.541,73.146 42.333,73.940 41.721,74.301 C41.237,74.586 40.716,74.805 40.175,74.953 C40.062,74.982 39.950,74.997 39.840,74.997 C39.274,74.997 38.757,74.616 38.601,74.038 C38.418,73.345 38.823,72.635 39.507,72.449 ZM41.194,65.916 C40.954,65.679 40.684,65.473 40.390,65.306 C39.774,64.952 39.559,64.162 39.908,63.540 C40.257,62.915 41.037,62.700 41.657,63.051 C42.143,63.331 42.591,63.670 42.990,64.066 C43.496,64.567 43.505,65.387 43.008,65.898 C42.757,66.156 42.424,66.287 42.092,66.287 C41.769,66.287 41.444,66.164 41.194,65.916 ZM42.220,69.697 C42.306,69.372 42.350,69.035 42.350,68.693 C42.350,67.977 42.925,67.367 43.633,67.367 C44.342,67.367 44.917,67.916 44.917,68.633 L44.917,68.694 C44.917,69.260 44.843,69.824 44.700,70.366 C44.546,70.945 44.027,71.328 43.460,71.328 C43.351,71.328 43.239,71.313 43.129,71.284 C42.445,71.098 42.037,70.388 42.220,69.697 ZM48.767,67.398 L50.050,67.398 C50.758,67.398 51.333,67.977 51.333,68.694 C51.333,69.411 50.758,69.990 50.050,69.990 L48.767,69.990 C48.058,69.990 47.483,69.411 47.483,68.694 C47.483,67.977 48.058,67.398 48.767,67.398 ZM53.900,67.398 L55.183,67.398 C55.892,67.398 56.467,67.977 56.467,68.694 C56.467,69.411 55.892,69.990 55.183,69.990 L53.900,69.990 C53.191,69.990 52.617,69.411 52.617,68.694 C52.617,67.977 53.191,67.398 53.900,67.398 ZM59.033,67.398 L60.317,67.398 C61.025,67.398 61.600,67.977 61.600,68.694 C61.600,69.411 61.025,69.990 60.317,69.990 L59.033,69.990 C58.325,69.990 57.750,69.411 57.750,68.694 C57.750,67.977 58.325,67.398 59.033,67.398 ZM64.167,67.398 L65.450,67.398 C66.158,67.398 66.733,67.977 66.733,68.694 C66.733,69.411 66.158,69.990 65.450,69.990 L64.167,69.990 C63.458,69.990 62.883,69.411 62.883,68.694 C62.883,67.977 63.458,67.398 64.167,67.398 ZM69.300,67.398 L70.583,67.398 C71.292,67.398 71.867,67.977 71.867,68.694 C71.867,69.411 71.292,69.990 70.583,69.990 L69.300,69.990 C68.592,69.990 68.017,69.411 68.017,68.694 C68.017,67.977 68.592,67.398 69.300,67.398 ZM74.433,67.398 L75.717,67.398 C76.425,67.398 77.000,67.977 77.000,68.694 C77.000,69.411 76.425,69.990 75.717,69.990 L74.433,69.990 C73.725,69.990 73.150,69.411 73.150,68.694 C73.150,67.977 73.725,67.398 74.433,67.398 Z"/>
</svg>