<svg 
 xmlns="http://www.w3.org/2000/svg"
 xmlns:xlink="http://www.w3.org/1999/xlink"
 width="80px" height="80px">
<path fill-rule="evenodd"  fill="rgb(149, 21, 69)"
 d="M75.312,70.453 L69.687,70.453 L69.687,78.441 C69.687,79.046 69.336,79.597 68.787,79.853 C68.575,79.952 68.350,80.000 68.125,80.000 C67.766,80.000 67.410,79.876 67.123,79.638 L56.100,70.453 L27.500,70.453 C24.915,70.453 22.813,68.355 22.813,65.777 L22.813,60.126 L15.934,65.242 C15.659,65.447 15.330,65.551 15.000,65.551 C14.761,65.551 14.521,65.496 14.299,65.385 C13.771,65.121 13.438,64.582 13.438,63.992 L13.438,53.931 L4.687,53.931 C2.103,53.931 -0.000,51.833 -0.000,49.255 L-0.000,4.676 C-0.000,2.098 2.103,-0.000 4.687,-0.000 L65.000,-0.000 C67.585,-0.000 69.687,2.098 69.687,4.676 L69.687,25.874 L75.312,25.874 C77.897,25.874 80.000,27.972 80.000,30.550 L80.000,65.777 C80.000,68.355 77.897,70.453 75.312,70.453 ZM66.562,4.676 C66.562,3.817 65.861,3.117 65.000,3.117 L4.687,3.117 C3.826,3.117 3.125,3.817 3.125,4.676 L3.125,49.255 C3.125,50.114 3.826,50.813 4.687,50.813 L15.000,50.813 C15.863,50.813 16.562,51.511 16.562,52.372 L16.562,60.886 L29.691,51.123 C29.961,50.922 30.288,50.813 30.625,50.813 L65.000,50.813 C65.861,50.813 66.562,50.114 66.562,49.255 L66.562,4.676 ZM76.875,30.550 C76.875,29.691 76.174,28.992 75.312,28.992 L69.687,28.992 L69.687,49.255 C69.687,51.833 67.585,53.931 65.000,53.931 L31.143,53.931 L25.937,57.803 L25.937,65.777 C25.937,66.637 26.638,67.336 27.500,67.336 L56.667,67.336 C57.033,67.336 57.388,67.464 57.669,67.698 L66.562,75.108 L66.562,68.894 C66.562,68.033 67.262,67.336 68.125,67.336 L75.312,67.336 C76.174,67.336 76.875,66.636 76.875,65.777 L76.875,30.550 ZM49.375,47.696 C48.512,47.696 47.812,46.998 47.812,46.137 C47.812,45.277 48.512,44.579 49.375,44.579 C50.237,44.579 50.938,45.277 50.938,46.137 C50.938,46.998 50.237,47.696 49.375,47.696 ZM50.197,30.189 L47.072,35.588 C46.865,35.946 46.523,36.208 46.123,36.314 C45.723,36.422 45.296,36.365 44.937,36.159 L41.412,34.128 C40.512,34.824 39.517,35.391 38.437,35.823 L38.437,39.903 C38.437,40.764 37.738,41.461 36.875,41.461 L30.625,41.461 C29.762,41.461 29.062,40.764 29.062,39.903 L29.062,35.821 C27.990,35.389 26.987,34.817 26.090,34.127 L22.562,36.159 C21.815,36.589 20.859,36.334 20.428,35.588 L17.303,30.189 C16.872,29.443 17.127,28.490 17.875,28.060 L21.386,26.037 C21.294,25.443 21.250,24.873 21.250,24.316 C21.250,23.758 21.295,23.188 21.386,22.595 L17.875,20.572 C17.127,20.141 16.872,19.188 17.303,18.443 L20.428,13.043 C20.859,12.298 21.815,12.042 22.562,12.473 L26.090,14.504 C26.987,13.814 27.990,13.243 29.062,12.810 L29.062,8.261 C29.062,7.400 29.762,6.702 30.625,6.702 L36.875,6.702 C37.738,6.702 38.437,7.400 38.437,8.261 L38.437,12.808 C39.517,13.240 40.512,13.807 41.412,14.503 L44.937,12.472 C45.296,12.266 45.722,12.210 46.123,12.317 C46.523,12.424 46.865,12.685 47.072,13.043 L50.197,18.442 C50.628,19.188 50.372,20.141 49.625,20.572 L46.114,22.594 C46.205,23.188 46.250,23.758 46.250,24.316 C46.250,24.873 46.205,25.443 46.114,26.037 L49.625,28.060 C50.372,28.490 50.628,29.443 50.197,30.189 ZM43.584,28.180 C42.986,27.835 42.685,27.139 42.846,26.468 C43.034,25.682 43.125,24.978 43.125,24.316 C43.125,23.653 43.034,22.949 42.846,22.163 C42.685,21.493 42.986,20.797 43.584,20.452 L46.709,18.651 L45.147,15.952 L42.019,17.754 C41.421,18.098 40.667,18.010 40.165,17.537 C39.121,16.555 37.863,15.837 36.424,15.405 C35.764,15.207 35.312,14.600 35.312,13.913 L35.312,9.820 L32.187,9.820 L32.187,13.913 C32.187,14.600 31.736,15.207 31.075,15.405 C29.636,15.837 28.379,16.554 27.337,17.537 C26.835,18.010 26.081,18.098 25.483,17.754 L22.353,15.951 L20.791,18.651 L23.916,20.452 C24.514,20.796 24.814,21.492 24.654,22.163 C24.466,22.949 24.375,23.653 24.375,24.316 C24.375,24.978 24.466,25.682 24.654,26.468 C24.814,27.139 24.514,27.835 23.916,28.180 L20.791,29.980 L22.353,32.680 L25.483,30.877 C26.081,30.533 26.835,30.621 27.337,31.095 C28.379,32.076 29.636,32.794 31.075,33.226 C31.735,33.424 32.187,34.031 32.187,34.718 L32.187,38.344 L35.312,38.344 L35.312,34.718 C35.312,34.031 35.764,33.424 36.424,33.226 C37.863,32.793 39.121,32.076 40.165,31.094 C40.667,30.621 41.421,30.533 42.019,30.877 L45.147,32.679 L46.709,29.980 L43.584,28.180 ZM33.750,30.550 C30.304,30.550 27.500,27.753 27.500,24.316 C27.500,20.878 30.304,18.081 33.750,18.081 C37.196,18.081 40.000,20.878 40.000,24.316 C40.000,27.753 37.196,30.550 33.750,30.550 ZM33.750,21.198 C32.027,21.198 30.625,22.597 30.625,24.316 C30.625,26.035 32.027,27.433 33.750,27.433 C35.473,27.433 36.875,26.035 36.875,24.316 C36.875,22.597 35.473,21.198 33.750,21.198 ZM21.250,44.579 L43.125,44.579 C43.988,44.579 44.687,45.276 44.687,46.137 C44.687,46.998 43.988,47.696 43.125,47.696 L21.250,47.696 C20.387,47.696 19.687,46.998 19.687,46.137 C19.687,45.276 20.387,44.579 21.250,44.579 Z"/>
</svg>