<svg 
 xmlns="http://www.w3.org/2000/svg"
 xmlns:xlink="http://www.w3.org/1999/xlink"
 width="73px" height="73px">
<path fill-rule="evenodd"  fill="rgb(149, 21, 69)"
 d="M71.574,55.892 L57.149,55.892 C57.000,56.482 56.797,57.051 56.550,57.596 L63.472,64.518 C63.811,64.858 63.957,65.345 63.860,65.815 C63.763,66.285 63.437,66.674 62.991,66.851 L59.234,68.345 L57.740,72.103 C57.562,72.549 57.173,72.875 56.703,72.972 C56.243,73.067 55.739,72.916 55.407,72.584 C55.397,72.574 47.265,64.442 47.265,64.442 L39.123,72.584 C38.852,72.854 38.489,73.002 38.114,73.002 C37.538,73.002 37.003,72.638 36.790,72.103 C36.788,72.098 35.295,68.345 35.295,68.345 L31.538,66.851 C31.093,66.674 30.766,66.285 30.669,65.815 C30.572,65.345 30.718,64.857 31.057,64.518 L37.979,57.596 C37.732,57.051 37.530,56.482 37.380,55.892 L1.426,55.892 C0.638,55.892 -0.000,55.254 -0.000,54.466 L-0.000,1.426 C-0.000,0.638 0.638,-0.000 1.426,-0.000 L71.574,-0.000 C72.361,-0.000 73.000,0.638 73.000,1.426 L73.000,54.466 C73.000,55.254 72.361,55.892 71.574,55.892 ZM55.891,69.035 L56.811,66.721 C56.956,66.357 57.245,66.068 57.609,65.923 L59.924,65.003 L54.975,60.054 C53.692,61.538 51.991,62.648 50.055,63.200 L55.891,69.035 ZM54.607,53.396 C54.607,49.348 51.313,46.053 47.265,46.053 C43.216,46.053 39.922,49.348 39.922,53.396 C39.922,57.445 43.216,60.739 47.265,60.739 C51.313,60.739 54.607,57.445 54.607,53.396 ZM34.606,65.003 L36.920,65.923 C37.284,66.068 37.573,66.357 37.718,66.721 L38.638,69.035 L44.474,63.200 C42.538,62.648 40.837,61.538 39.554,60.054 L34.606,65.003 ZM70.148,2.852 L2.852,2.852 L2.852,53.040 L37.079,53.040 C37.268,47.583 41.763,43.202 47.265,43.202 C52.766,43.202 57.261,47.583 57.450,53.040 L70.148,53.040 L70.148,2.852 ZM7.984,31.367 C7.984,30.580 8.623,29.941 9.410,29.941 L63.590,29.941 C64.377,29.941 65.016,30.580 65.016,31.367 C65.016,32.155 64.377,32.793 63.590,32.793 L9.410,32.793 C8.623,32.793 7.984,32.155 7.984,31.367 ZM63.590,27.090 L59.312,27.090 C58.525,27.090 57.887,26.452 57.887,25.664 C57.887,24.877 58.525,24.238 59.312,24.238 L63.590,24.238 C64.377,24.238 65.016,24.877 65.016,25.664 C65.016,26.452 64.377,27.090 63.590,27.090 ZM63.590,21.387 L60.738,21.387 C59.951,21.387 59.312,20.748 59.312,19.961 C59.312,19.173 59.951,18.535 60.738,18.535 L63.590,18.535 C64.377,18.535 65.016,19.173 65.016,19.961 C65.016,20.748 64.377,21.387 63.590,21.387 ZM55.668,25.664 C55.668,26.450 55.029,27.090 54.242,27.090 C53.457,27.090 52.816,26.450 52.816,25.664 C52.816,24.878 53.457,24.238 54.242,24.238 C55.029,24.238 55.668,24.878 55.668,25.664 ZM55.035,21.387 L49.332,21.387 C48.545,21.387 47.906,20.748 47.906,19.961 C47.906,19.173 48.545,18.535 49.332,18.535 L55.035,18.535 C55.822,18.535 56.461,19.173 56.461,19.961 C56.461,20.748 55.822,21.387 55.035,21.387 ZM49.174,24.238 C49.959,24.238 50.599,24.878 50.599,25.664 C50.599,26.450 49.959,27.090 49.174,27.090 L41.570,27.090 C40.783,27.090 40.144,26.450 40.144,25.664 C40.144,24.878 40.783,24.238 41.570,24.238 L49.174,24.238 ZM37.926,25.664 C37.926,26.450 37.286,27.090 36.500,27.090 C35.713,27.090 35.074,26.450 35.074,25.664 C35.074,24.878 35.713,24.238 36.500,24.238 C37.286,24.238 37.926,24.878 37.926,25.664 ZM33.648,19.961 C33.648,19.173 34.287,18.535 35.074,18.535 L43.629,18.535 C44.416,18.535 45.055,19.173 45.055,19.961 C45.055,20.748 44.416,21.387 43.629,21.387 L35.074,21.387 C34.287,21.387 33.648,20.748 33.648,19.961 ZM23.826,24.238 L31.430,24.238 C32.217,24.238 32.856,24.878 32.856,25.664 C32.856,26.450 32.217,27.090 31.430,27.090 L23.826,27.090 C23.040,27.090 22.400,26.450 22.400,25.664 C22.400,24.878 23.040,24.238 23.826,24.238 ZM23.668,18.535 L29.371,18.535 C30.158,18.535 30.797,19.173 30.797,19.961 C30.797,20.748 30.158,21.387 29.371,21.387 L23.668,21.387 C22.881,21.387 22.242,20.748 22.242,19.961 C22.242,19.173 22.881,18.535 23.668,18.535 ZM49.332,14.257 L23.668,14.257 C22.881,14.257 22.242,13.619 22.242,12.832 C22.242,12.044 22.881,11.406 23.668,11.406 L49.332,11.406 C50.119,11.406 50.758,12.044 50.758,12.832 C50.758,13.619 50.119,14.257 49.332,14.257 ZM18.758,27.090 C17.969,27.090 17.332,26.451 17.332,25.664 C17.332,24.877 17.969,24.238 18.758,24.238 C19.545,24.238 20.182,24.877 20.182,25.664 C20.182,26.451 19.545,27.090 18.758,27.090 ZM9.410,24.238 L13.687,24.238 C14.475,24.238 15.113,24.877 15.113,25.664 C15.113,26.452 14.475,27.090 13.687,27.090 L9.410,27.090 C8.623,27.090 7.984,26.452 7.984,25.664 C7.984,24.877 8.623,24.238 9.410,24.238 ZM17.965,21.387 L9.410,21.387 C8.623,21.387 7.984,20.748 7.984,19.961 C7.984,19.173 8.623,18.535 9.410,18.535 L17.965,18.535 C18.752,18.535 19.391,19.173 19.391,19.961 C19.391,20.748 18.752,21.387 17.965,21.387 ZM9.410,35.645 L17.965,35.645 C18.752,35.645 19.391,36.283 19.391,37.071 C19.391,37.858 18.752,38.496 17.965,38.496 L9.410,38.496 C8.623,38.496 7.984,37.858 7.984,37.071 C7.984,36.283 8.623,35.645 9.410,35.645 ZM9.410,41.348 L26.520,41.348 C27.305,41.348 27.945,41.988 27.945,42.774 C27.945,43.559 27.305,44.200 26.520,44.200 L9.410,44.200 C8.625,44.200 7.984,43.559 7.984,42.774 C7.984,41.988 8.625,41.348 9.410,41.348 ZM23.668,38.496 C22.881,38.496 22.242,37.858 22.242,37.071 C22.242,36.283 22.881,35.645 23.668,35.645 L32.223,35.645 C33.010,35.645 33.648,36.283 33.648,37.071 C33.648,37.858 33.010,38.496 32.223,38.496 L23.668,38.496 ZM32.223,41.348 C33.008,41.348 33.648,41.988 33.648,42.774 C33.648,43.559 33.008,44.200 32.223,44.200 C31.437,44.200 30.797,43.559 30.797,42.774 C30.797,41.988 31.437,41.348 32.223,41.348 ZM47.265,49.119 C49.623,49.119 51.542,51.038 51.542,53.396 C51.542,55.755 49.623,57.674 47.265,57.674 C44.906,57.674 42.987,55.755 42.987,53.396 C42.987,51.038 44.906,49.119 47.265,49.119 ZM47.265,54.822 C48.051,54.822 48.690,54.183 48.690,53.396 C48.690,52.610 48.051,51.971 47.265,51.971 C46.478,51.971 45.839,52.610 45.839,53.396 C45.839,54.183 46.478,54.822 47.265,54.822 Z"/>
</svg>