<svg 
 xmlns="http://www.w3.org/2000/svg"
 xmlns:xlink="http://www.w3.org/1999/xlink"
 width="75px" height="75px">
<path fill-rule="evenodd"  fill="rgb(149, 21, 69)"
 d="M71.371,75.000 L52.016,75.000 C50.015,75.000 48.387,73.372 48.387,71.371 L48.387,56.855 C48.387,54.854 50.015,53.226 52.016,53.226 L71.371,53.226 C73.372,53.226 75.000,54.854 75.000,56.855 L75.000,71.371 C75.000,73.372 73.372,75.000 71.371,75.000 ZM62.903,55.645 L52.016,55.645 C51.348,55.645 50.806,56.187 50.806,56.855 L50.806,71.371 C50.806,72.039 51.348,72.581 52.016,72.581 L62.903,72.581 L62.903,55.645 ZM72.581,56.855 C72.581,56.187 72.039,55.645 71.371,55.645 L65.323,55.645 L65.323,72.581 L71.371,72.581 C72.039,72.581 72.581,72.039 72.581,71.371 L72.581,56.855 ZM9.677,36.290 L7.258,36.290 L7.258,33.871 L9.677,33.871 L9.677,36.290 ZM7.258,29.032 L9.677,29.032 L9.677,31.452 L7.258,31.452 L7.258,29.032 ZM54.620,40.560 L56.671,39.277 L60.484,45.379 L60.484,26.613 C60.484,24.612 58.856,22.984 56.855,22.984 L54.970,22.984 C52.845,30.643 45.829,36.290 37.500,36.290 C29.171,36.290 22.155,30.643 20.030,22.984 L18.145,22.984 C16.144,22.984 14.516,24.612 14.516,26.613 L14.516,45.379 L18.330,39.278 L20.381,40.562 L13.306,51.879 L6.232,40.560 L8.284,39.278 L12.097,45.379 L12.097,26.613 C12.097,23.278 14.810,20.564 18.145,20.564 L19.535,20.564 C19.429,19.771 19.355,18.968 19.355,18.145 L18.145,18.145 C13.477,18.145 9.677,21.943 9.677,26.613 L7.258,26.613 C7.258,20.610 12.141,15.726 18.145,15.726 L19.535,15.726 C20.724,6.864 28.316,-0.000 37.500,-0.000 C46.684,-0.000 54.276,6.864 55.465,15.726 L56.855,15.726 C62.858,15.726 67.742,20.610 67.742,26.613 L65.323,26.613 C65.323,21.943 61.523,18.145 56.855,18.145 L55.645,18.145 C55.645,18.968 55.571,19.771 55.465,20.564 L56.855,20.564 C60.190,20.564 62.903,23.278 62.903,26.613 L62.903,45.379 L66.717,39.278 L68.768,40.562 L61.693,51.879 L54.620,40.560 ZM37.500,2.419 C28.829,2.419 21.774,9.474 21.774,18.145 C21.774,26.816 28.829,33.871 37.500,33.871 C46.171,33.871 53.226,26.816 53.226,18.145 C53.226,9.474 46.171,2.419 37.500,2.419 ZM48.387,16.935 L50.806,16.935 L50.806,19.355 L48.387,19.355 L48.387,16.935 ZM44.758,22.984 C44.758,25.905 42.676,28.347 39.919,28.910 L39.919,31.452 L37.500,31.452 L37.500,29.032 L35.081,29.032 L35.081,31.452 L32.661,31.452 L32.661,29.032 L30.242,29.032 L30.242,7.258 L32.661,7.258 L32.661,4.839 L35.081,4.839 L35.081,7.258 L37.500,7.258 L37.500,4.839 L39.919,4.839 L39.919,7.380 C42.676,7.943 44.758,10.386 44.758,13.306 C44.758,15.283 43.805,17.041 42.335,18.145 C43.805,19.250 44.758,21.007 44.758,22.984 ZM42.339,13.306 C42.339,11.305 40.710,9.677 38.710,9.677 L32.661,9.677 L32.661,16.935 L38.710,16.935 C40.710,16.935 42.339,15.307 42.339,13.306 ZM38.710,19.355 L32.661,19.355 L32.661,26.613 L38.710,26.613 C40.710,26.613 42.339,24.984 42.339,22.984 C42.339,20.983 40.710,19.355 38.710,19.355 ZM24.193,16.935 L26.613,16.935 L26.613,19.355 L24.193,19.355 L24.193,16.935 ZM65.323,33.871 L67.742,33.871 L67.742,36.290 L65.323,36.290 L65.323,33.871 ZM65.323,29.032 L67.742,29.032 L67.742,31.452 L65.323,31.452 L65.323,29.032 ZM26.613,56.855 L26.613,71.371 C26.613,73.372 24.985,75.000 22.984,75.000 L3.629,75.000 C1.628,75.000 -0.000,73.372 -0.000,71.371 L-0.000,56.855 C-0.000,54.854 1.628,53.226 3.629,53.226 L22.984,53.226 C24.985,53.226 26.613,54.854 26.613,56.855 ZM14.516,55.645 L3.629,55.645 C2.961,55.645 2.419,56.187 2.419,56.855 L2.419,71.371 C2.419,72.039 2.961,72.581 3.629,72.581 L14.516,72.581 L14.516,55.645 ZM16.935,72.581 L22.984,72.581 C23.652,72.581 24.193,72.039 24.193,71.371 L24.193,56.855 C24.193,56.187 23.652,55.645 22.984,55.645 L16.935,55.645 L16.935,72.581 Z"/>
</svg>