<svg 
 xmlns="http://www.w3.org/2000/svg"
 xmlns:xlink="http://www.w3.org/1999/xlink"
 width="29px" height="30px">
<path fill-rule="evenodd"  fill="rgb(88, 118, 155)"
 d="M28.945,13.299 C28.917,13.366 28.877,13.427 28.826,13.477 L22.264,20.022 C22.157,20.128 22.017,20.182 21.877,20.182 C21.737,20.182 21.597,20.128 21.490,20.022 C21.276,19.808 21.276,19.464 21.490,19.251 L27.120,13.636 L15.314,13.636 C15.011,13.636 14.767,13.392 14.767,13.091 C14.767,12.789 15.011,12.545 15.314,12.545 L27.120,12.545 L21.490,6.931 C21.276,6.718 21.276,6.373 21.490,6.160 C21.704,5.946 22.050,5.946 22.264,6.160 L28.826,12.704 C28.877,12.755 28.917,12.815 28.945,12.882 C29.000,13.016 29.000,13.166 28.945,13.299 ZM19.142,10.363 C18.840,10.363 18.595,10.120 18.595,9.818 L18.595,1.091 L4.069,1.091 L12.745,3.843 C12.972,3.916 13.126,4.126 13.126,4.363 L13.126,25.091 L18.595,25.091 L18.595,16.363 C18.595,16.062 18.840,15.818 19.142,15.818 C19.444,15.818 19.689,16.062 19.689,16.363 L19.689,25.636 C19.689,25.938 19.445,26.181 19.142,26.181 L13.126,26.181 L13.126,29.454 C13.126,29.629 13.043,29.792 12.902,29.895 C12.807,29.964 12.694,30.000 12.579,30.000 C12.523,30.000 12.468,29.991 12.414,29.975 L0.381,26.156 C0.372,26.153 0.365,26.147 0.356,26.143 C0.334,26.135 0.315,26.124 0.295,26.113 C0.257,26.093 0.221,26.070 0.190,26.042 C0.172,26.026 0.156,26.010 0.140,25.993 C0.111,25.960 0.088,25.924 0.068,25.886 C0.058,25.867 0.047,25.850 0.039,25.830 C0.016,25.769 -0.000,25.704 -0.000,25.636 L-0.000,0.545 C-0.000,0.479 0.015,0.415 0.038,0.354 C0.042,0.343 0.045,0.332 0.050,0.321 C0.075,0.266 0.109,0.217 0.151,0.172 C0.159,0.163 0.169,0.155 0.179,0.147 C0.194,0.133 0.207,0.117 0.224,0.104 C0.238,0.095 0.255,0.095 0.269,0.086 C0.313,0.059 0.359,0.041 0.410,0.027 C0.439,0.019 0.466,0.012 0.497,0.010 C0.514,0.008 0.529,-0.000 0.547,-0.000 L19.142,-0.000 C19.445,-0.000 19.689,0.244 19.689,0.545 L19.689,9.818 C19.689,10.120 19.445,10.363 19.142,10.363 ZM1.094,25.237 L12.032,28.709 L12.032,4.762 L1.094,1.291 L1.094,25.237 Z"/>
</svg>