<svg 
 xmlns="http://www.w3.org/2000/svg"
 xmlns:xlink="http://www.w3.org/1999/xlink"
 width="24px" height="24px">
<path fill-rule="evenodd"  fill="#002e53"
 d="M18.562,6.564 C18.562,7.393 17.891,8.065 17.062,8.065 C16.234,8.065 15.562,7.393 15.562,6.564 C15.562,5.736 16.234,5.064 17.062,5.064 C17.891,5.064 18.562,5.736 18.562,6.564 ZM22.898,11.794 L19.172,15.503 C18.091,16.580 16.479,16.895 15.066,16.308 C14.390,16.026 13.734,15.692 13.118,15.313 C12.677,15.042 12.539,14.465 12.809,14.024 C13.080,13.582 13.658,13.444 14.099,13.715 C14.632,14.042 15.200,14.332 15.786,14.576 C16.497,14.872 17.307,14.714 17.849,14.174 L21.575,10.464 C22.102,9.940 22.267,9.155 21.996,8.463 C21.561,7.355 20.769,5.763 19.469,4.469 C18.177,3.182 16.608,2.416 15.520,2.000 C14.826,1.735 14.039,1.902 13.513,2.425 L9.832,6.090 C9.288,6.632 9.131,7.463 9.440,8.159 C9.704,8.752 10.002,9.324 10.327,9.860 C10.551,10.229 10.494,10.704 10.188,11.009 L1.875,19.325 L1.875,22.124 L4.125,22.124 L4.125,20.437 C4.125,19.919 4.545,19.499 5.062,19.499 L6.750,19.499 L6.750,17.811 C6.750,17.293 7.169,16.873 7.687,16.873 L10.312,16.873 C10.830,16.873 11.250,17.293 11.250,17.811 C11.250,18.329 10.830,18.749 10.312,18.749 L8.625,18.749 L8.625,20.437 C8.625,20.954 8.205,21.374 7.687,21.374 L6.000,21.374 L6.000,23.062 C6.000,23.580 5.580,24.000 5.062,24.000 L0.937,24.000 C0.420,24.000 -0.000,23.580 -0.000,23.062 L-0.000,18.936 C-0.000,18.688 0.099,18.449 0.274,18.273 L8.354,10.191 C8.130,9.781 7.920,9.355 7.727,8.921 C7.103,7.519 7.418,5.847 8.509,4.761 L12.191,1.096 C13.238,0.053 14.808,-0.280 16.189,0.248 C17.447,0.729 19.267,1.621 20.792,3.139 C22.322,4.663 23.240,6.503 23.741,7.778 C24.286,9.165 23.955,10.742 22.898,11.794 Z"/>
</svg>