<svg 
 xmlns="http://www.w3.org/2000/svg"
 xmlns:xlink="http://www.w3.org/1999/xlink"
 width="30px" height="30px">
<path fill-rule="evenodd"  fill="rgb(157, 169, 178)"
 d="M15.004,30.000 C15.003,30.000 15.001,30.000 15.000,30.000 C15.000,30.000 14.999,30.000 14.999,30.000 C6.728,29.999 -0.000,23.270 -0.000,15.000 C-0.000,6.729 6.729,-0.000 15.000,-0.000 C23.271,-0.000 30.000,6.729 30.000,15.000 C30.000,23.269 23.273,29.997 15.004,30.000 ZM26.656,7.826 L22.826,7.826 C22.466,7.826 22.174,7.534 22.174,7.174 C22.174,6.814 22.466,6.522 22.826,6.522 L25.732,6.522 C24.071,4.427 21.818,2.821 19.221,1.977 C20.136,2.899 20.960,4.109 21.634,5.606 C21.781,5.933 21.635,6.321 21.306,6.468 C21.220,6.507 21.129,6.526 21.039,6.526 C20.791,6.526 20.552,6.383 20.444,6.141 C19.206,3.392 17.487,1.701 15.652,1.373 L15.652,4.565 C15.652,4.925 15.360,5.217 15.000,5.217 C14.640,5.217 14.348,4.925 14.348,4.565 L14.348,1.373 C12.513,1.701 10.794,3.392 9.556,6.141 C9.447,6.383 9.210,6.526 8.961,6.526 C8.871,6.526 8.779,6.507 8.693,6.468 C8.365,6.321 8.219,5.934 8.366,5.606 C9.040,4.109 9.864,2.899 10.779,1.977 C8.181,2.821 5.929,4.427 4.268,6.522 L7.174,6.522 C7.534,6.522 7.826,6.814 7.826,7.174 C7.826,7.534 7.534,7.826 7.174,7.826 L3.343,7.826 C2.161,9.737 1.464,11.967 1.350,14.348 L4.565,14.348 C4.925,14.348 5.217,14.640 5.217,15.000 C5.217,15.360 4.925,15.652 4.565,15.652 L1.350,15.652 C1.464,18.033 2.161,20.262 3.344,22.174 L7.174,22.174 C7.534,22.174 7.826,22.466 7.826,22.826 C7.826,23.186 7.534,23.478 7.174,23.478 L4.268,23.478 C5.929,25.573 8.182,27.179 10.779,28.023 C9.864,27.101 9.040,25.891 8.366,24.394 C8.219,24.066 8.365,23.679 8.693,23.532 C9.018,23.387 9.408,23.529 9.556,23.859 C10.794,26.608 12.513,28.298 14.348,28.627 L14.348,25.435 C14.348,25.075 14.640,24.782 15.000,24.782 C15.360,24.782 15.652,25.075 15.652,25.435 L15.652,28.626 C17.487,28.298 19.206,26.608 20.444,23.859 C20.592,23.529 20.983,23.387 21.306,23.532 C21.635,23.679 21.781,24.066 21.634,24.394 C20.960,25.891 20.136,27.101 19.221,28.023 C21.818,27.179 24.071,25.573 25.732,23.478 L22.826,23.478 C22.466,23.478 22.174,23.186 22.174,22.826 C22.174,22.466 22.466,22.174 22.826,22.174 L26.656,22.174 C27.839,20.262 28.535,18.033 28.649,15.652 L25.435,15.652 C25.075,15.652 24.782,15.360 24.782,15.000 C24.782,14.640 25.075,14.348 25.435,14.348 L28.649,14.348 C28.535,11.967 27.839,9.737 26.656,7.826 ZM15.000,23.478 C10.325,23.478 6.522,19.675 6.522,15.000 C6.522,10.325 10.325,6.522 15.000,6.522 C19.675,6.522 23.478,10.325 23.478,15.000 C23.478,19.675 19.675,23.478 15.000,23.478 ZM15.000,7.826 C11.045,7.826 7.826,11.044 7.826,15.000 C7.826,18.956 11.045,22.174 15.000,22.174 C18.955,22.174 22.174,18.956 22.174,15.000 C22.174,11.044 18.955,7.826 15.000,7.826 ZM16.956,19.202 L16.956,20.217 C16.956,20.577 16.664,20.870 16.304,20.870 C15.944,20.870 15.652,20.577 15.652,20.217 L15.652,19.565 L14.348,19.565 L14.348,20.217 C14.348,20.577 14.056,20.870 13.696,20.870 C13.336,20.870 13.043,20.577 13.043,20.217 L13.043,19.565 L12.391,19.565 C12.031,19.565 11.739,19.273 11.739,18.913 L11.739,11.087 C11.739,10.727 12.031,10.435 12.391,10.435 L13.043,10.435 L13.043,9.782 C13.043,9.423 13.336,9.130 13.696,9.130 C14.056,9.130 14.348,9.423 14.348,9.782 L14.348,10.435 L15.652,10.435 C15.652,10.435 15.652,10.435 15.652,10.435 L15.652,9.782 C15.652,9.423 15.944,9.130 16.304,9.130 C16.664,9.130 16.956,9.423 16.956,9.782 L16.956,10.798 C17.732,11.250 18.261,12.082 18.261,13.043 C18.261,13.822 17.918,14.521 17.375,15.000 C17.918,15.479 18.261,16.178 18.261,16.956 C18.261,17.918 17.732,18.750 16.956,19.202 ZM15.652,11.739 L13.043,11.739 L13.043,14.348 L15.652,14.348 C16.372,14.348 16.956,13.762 16.956,13.043 C16.956,12.325 16.372,11.739 15.652,11.739 ZM15.652,15.652 L13.043,15.652 L13.043,18.261 L15.652,18.261 C16.372,18.261 16.956,17.675 16.956,16.956 C16.956,16.238 16.372,15.652 15.652,15.652 Z"/>
</svg>