<svg 
 xmlns="http://www.w3.org/2000/svg"
 xmlns:xlink="http://www.w3.org/1999/xlink"
 width="111px" height="112px">
<path fill-rule="evenodd"  fill="rgb(149, 21, 69)"
 d="M103.087,71.520 C103.011,71.584 102.930,71.642 102.845,71.694 C100.928,73.143 98.769,74.239 96.468,74.933 L99.539,88.743 C99.669,88.740 99.787,88.725 99.909,88.725 C104.480,88.717 108.586,91.519 110.243,95.777 C112.458,101.471 109.636,107.883 103.940,110.097 C98.243,112.312 91.830,109.491 89.614,103.797 C87.399,98.103 90.221,91.692 95.917,89.477 L92.847,75.667 C90.510,75.929 88.144,75.769 85.864,75.194 L79.795,90.362 C83.843,92.843 85.873,97.616 84.853,102.251 C83.530,108.259 77.586,112.057 71.576,110.735 C65.566,109.414 61.766,103.472 63.089,97.464 C64.411,91.457 70.355,87.658 76.365,88.980 L82.359,74.000 C80.983,73.377 79.681,72.604 78.476,71.694 C78.394,71.642 78.316,71.584 78.244,71.520 C78.024,71.352 77.809,71.179 77.597,71.002 C69.007,63.827 67.863,51.049 75.041,42.462 L68.538,35.961 C68.349,36.118 68.140,36.259 67.955,36.408 C67.882,36.472 67.804,36.530 67.722,36.582 C60.514,42.042 50.553,42.042 43.345,36.582 C43.263,36.531 43.185,36.472 43.112,36.408 C42.918,36.259 42.715,36.118 42.530,35.961 L36.026,42.462 C36.203,42.674 36.375,42.889 36.544,43.108 C43.367,51.979 41.704,64.700 32.829,71.520 C32.756,71.584 32.678,71.642 32.597,71.694 C31.392,72.605 30.090,73.379 28.714,74.000 L34.708,88.980 C39.300,87.976 44.025,89.985 46.487,93.988 C49.685,99.187 48.061,105.993 42.860,109.190 C37.659,112.387 30.850,110.764 27.652,105.565 C24.454,100.366 26.077,93.559 31.278,90.362 L25.209,75.194 C22.929,75.769 20.563,75.929 18.226,75.667 L15.155,89.477 C19.452,91.142 22.277,95.281 22.262,99.887 C22.242,106.031 17.242,110.995 11.096,110.975 C4.949,110.954 -0.017,105.957 0.003,99.813 C0.024,93.669 5.023,88.705 11.170,88.725 C11.301,88.725 11.419,88.744 11.539,88.744 L14.601,74.934 C12.300,74.240 10.141,73.143 8.225,71.694 C8.142,71.642 8.064,71.584 7.992,71.520 C7.729,71.320 7.472,71.114 7.220,70.901 C-1.358,63.672 -2.450,50.860 4.783,42.285 C12.015,33.711 24.832,32.620 33.410,39.849 L39.914,33.348 C33.628,25.809 33.628,14.858 39.914,7.319 C47.104,-1.306 59.927,-2.470 68.555,4.718 C77.183,11.906 78.348,24.724 71.157,33.348 L77.661,39.849 C77.860,39.683 78.062,39.521 78.267,39.363 C87.150,32.512 99.908,34.157 106.762,43.037 C113.616,51.916 111.970,64.669 103.087,71.520 ZM74.027,92.421 C69.943,92.421 66.632,95.730 66.632,99.813 C66.632,103.895 69.943,107.205 74.027,107.205 C78.111,107.205 81.422,103.895 81.422,99.813 C81.422,95.730 78.111,92.421 74.027,92.421 ZM29.657,99.813 C29.657,103.895 32.968,107.205 37.052,107.205 C41.136,107.205 44.447,103.895 44.447,99.813 C44.447,95.730 41.136,92.421 37.052,92.421 C32.968,92.421 29.657,95.730 29.657,99.813 ZM11.170,92.421 C7.086,92.421 3.775,95.730 3.775,99.813 C3.775,103.895 7.086,107.205 11.170,107.205 C15.254,107.205 18.565,103.895 18.565,99.813 C18.565,95.730 15.254,92.421 11.170,92.421 ZM20.413,72.093 C23.672,72.095 26.859,71.134 29.574,69.332 C29.249,65.572 26.036,62.724 22.262,62.853 L18.565,62.853 C14.791,62.724 11.577,65.572 11.253,69.332 C13.968,71.134 17.154,72.095 20.413,72.093 ZM25.960,51.765 C25.960,48.703 23.476,46.221 20.413,46.221 C17.350,46.221 14.867,48.703 14.867,51.765 C14.867,54.827 17.350,57.309 20.413,57.309 C23.476,57.309 25.960,54.827 25.960,51.765 ZM32.787,44.335 C26.646,37.510 16.133,36.954 9.305,43.093 C2.477,49.232 1.921,59.741 8.062,66.566 C9.185,63.115 11.990,60.475 15.503,59.562 C14.321,58.821 13.322,57.823 12.582,56.641 C9.870,52.318 11.178,46.615 15.503,43.904 C19.828,41.194 25.533,42.501 28.245,46.825 C30.957,51.148 29.649,56.851 25.324,59.562 C28.836,60.476 31.641,63.116 32.765,66.566 C35.522,63.524 37.050,59.566 37.052,55.461 C37.055,51.353 35.535,47.390 32.787,44.335 ZM55.539,36.981 C58.798,36.983 61.985,36.022 64.700,34.220 C64.375,30.460 61.162,27.612 57.388,27.741 L53.691,27.741 C49.917,27.612 46.703,30.460 46.379,34.220 C49.093,36.022 52.280,36.983 55.539,36.981 ZM61.085,16.653 C61.085,13.591 58.602,11.109 55.539,11.109 C52.476,11.109 49.993,13.591 49.993,16.653 C49.993,19.715 52.476,22.197 55.539,22.197 C58.602,22.197 61.085,19.715 61.085,16.653 ZM67.891,9.166 C61.734,2.347 51.212,1.809 44.391,7.963 C37.569,14.118 37.031,24.635 43.188,31.454 C44.311,28.003 47.116,25.363 50.629,24.450 C49.447,23.709 48.448,22.711 47.708,21.529 C44.996,17.206 46.304,11.503 50.629,8.793 C54.954,6.082 60.659,7.389 63.371,11.713 C66.083,16.036 64.775,21.739 60.449,24.450 C63.962,25.364 66.767,28.004 67.891,31.454 C73.607,25.123 73.607,15.496 67.891,9.166 ZM92.514,99.813 C92.514,103.895 95.825,107.205 99.909,107.205 C103.993,107.205 107.304,103.895 107.304,99.813 C107.304,95.730 103.993,92.421 99.909,92.421 C95.825,92.421 92.514,95.730 92.514,99.813 ZM90.665,72.093 C93.924,72.095 97.111,71.134 99.826,69.332 C99.501,65.572 96.288,62.724 92.514,62.853 L88.816,62.853 C85.043,62.724 81.829,65.572 81.505,69.332 C84.219,71.134 87.406,72.095 90.665,72.093 ZM96.211,51.765 C96.211,48.703 93.728,46.221 90.665,46.221 C87.602,46.221 85.119,48.703 85.119,51.765 C85.119,54.827 87.602,57.309 90.665,57.309 C93.728,57.309 96.211,54.827 96.211,51.765 ZM103.017,44.278 C96.860,37.459 86.338,36.921 79.517,43.075 C72.695,49.230 72.157,59.747 78.314,66.566 C79.437,63.115 82.242,60.475 85.755,59.562 C84.573,58.821 83.574,57.823 82.833,56.641 C80.122,52.318 81.430,46.615 85.755,43.904 C90.080,41.194 95.785,42.501 98.497,46.825 C101.209,51.148 99.901,56.851 95.575,59.562 C99.088,60.476 101.893,63.116 103.017,66.566 C108.733,60.235 108.733,50.608 103.017,44.278 ZM103.606,99.813 C103.606,101.854 101.951,103.509 99.909,103.509 C97.867,103.509 96.211,101.854 96.211,99.813 C96.211,97.772 97.867,96.117 99.909,96.117 C101.951,96.117 103.606,97.772 103.606,99.813 ZM11.170,103.509 C9.128,103.509 7.472,101.854 7.472,99.813 C7.472,97.772 9.128,96.117 11.170,96.117 C13.212,96.117 14.867,97.772 14.867,99.813 C14.867,101.854 13.212,103.509 11.170,103.509 ZM37.052,96.117 C39.094,96.117 40.749,97.772 40.749,99.813 C40.749,101.854 39.094,103.509 37.052,103.509 C35.010,103.509 33.355,101.854 33.355,99.813 C33.355,97.772 35.010,96.117 37.052,96.117 ZM74.027,103.509 C71.984,103.509 70.329,101.854 70.329,99.813 C70.329,97.772 71.984,96.117 74.027,96.117 C76.069,96.117 77.724,97.772 77.724,99.813 C77.724,101.854 76.069,103.509 74.027,103.509 ZM55.539,55.461 C54.518,55.461 53.691,54.633 53.691,53.613 L53.691,46.221 C53.691,45.200 54.518,44.373 55.539,44.373 C56.560,44.373 57.388,45.200 57.388,46.221 L57.388,53.613 C57.388,54.633 56.560,55.461 55.539,55.461 ZM57.388,68.397 C57.388,69.418 56.560,70.245 55.539,70.245 C54.518,70.245 53.691,69.418 53.691,68.397 L53.691,61.005 C53.691,59.984 54.518,59.157 55.539,59.157 C56.560,59.157 57.388,59.984 57.388,61.005 L57.388,68.397 ZM53.691,82.416 L53.691,75.789 C53.691,74.768 54.518,73.941 55.539,73.941 C56.560,73.941 57.388,74.768 57.388,75.789 L57.388,82.416 L62.393,87.418 C63.085,88.134 63.085,89.270 62.393,89.986 C61.683,90.720 60.513,90.741 59.778,90.031 L55.539,85.794 L51.300,90.031 C51.285,90.047 51.270,90.062 51.255,90.077 C50.520,90.786 49.350,90.766 48.641,90.031 C47.931,89.297 47.952,88.127 48.686,87.418 L53.691,82.416 Z"/>
</svg>