<svg 
 xmlns="http://www.w3.org/2000/svg"
 xmlns:xlink="http://www.w3.org/1999/xlink"
 width="228px" height="229px">
<path fill-rule="evenodd"  fill="rgb(232, 234, 236)"
 d="M211.746,147.551 C211.589,147.683 211.423,147.803 211.249,147.910 C207.312,150.899 202.877,153.162 198.151,154.593 L204.459,183.084 C204.725,183.077 204.968,183.046 205.218,183.046 C214.608,183.030 223.041,188.810 226.444,197.597 C230.994,209.343 225.198,222.570 213.498,227.139 C201.797,231.707 188.623,225.887 184.073,214.141 C179.523,202.393 185.319,189.167 197.020,184.598 L190.712,156.107 C185.912,156.647 181.054,156.316 176.369,155.131 L163.903,186.425 C172.217,191.543 176.388,201.389 174.292,210.952 C171.576,223.346 159.367,231.183 147.022,228.456 C134.677,225.729 126.871,213.471 129.588,201.076 C132.304,188.682 144.514,180.846 156.858,183.573 L169.170,152.668 C166.344,151.383 163.670,149.787 161.195,147.910 C161.026,147.804 160.866,147.684 160.717,147.552 C160.267,147.205 159.824,146.848 159.388,146.483 C141.744,131.679 139.394,105.318 154.139,87.603 L140.780,74.191 C140.393,74.515 139.964,74.804 139.584,75.113 C139.434,75.244 139.274,75.364 139.106,75.472 C124.300,86.736 103.839,86.736 89.033,75.472 C88.864,75.365 88.704,75.245 88.555,75.113 C88.156,74.804 87.738,74.515 87.358,74.191 L73.999,87.603 C74.363,88.040 74.717,88.483 75.063,88.935 C89.078,107.237 85.662,133.480 67.433,147.552 C67.283,147.683 67.123,147.803 66.955,147.910 C64.482,149.790 61.807,151.386 58.980,152.668 L71.292,183.573 C80.724,181.502 90.429,185.646 95.486,193.903 C102.055,204.630 98.721,218.672 88.037,225.267 C77.354,231.862 63.367,228.514 56.798,217.788 C50.229,207.062 53.564,193.020 64.247,186.425 L51.781,155.131 C47.096,156.316 42.238,156.647 37.438,156.107 L31.130,184.598 C39.955,188.033 45.759,196.572 45.728,206.075 C45.685,218.750 35.417,228.992 22.791,228.950 C10.166,228.908 -0.035,218.598 0.007,205.922 C0.049,193.246 10.318,183.005 22.943,183.047 C23.213,183.047 23.456,183.085 23.703,183.085 L29.991,154.594 C25.266,153.162 20.831,150.899 16.894,147.910 C16.725,147.804 16.565,147.684 16.415,147.552 C15.877,147.139 15.348,146.713 14.830,146.275 C-2.790,131.360 -5.031,104.928 9.824,87.238 C24.679,69.548 51.006,67.297 68.626,82.212 L81.985,68.800 C69.074,53.246 69.074,30.653 81.985,15.099 C96.755,-2.693 123.094,-5.096 140.816,9.733 C158.538,24.562 160.931,51.007 146.161,68.799 L159.520,82.212 C159.929,81.870 160.343,81.536 160.764,81.210 C179.011,67.075 205.216,70.468 219.294,88.788 C233.373,107.108 229.993,133.417 211.746,147.551 ZM152.055,190.671 C143.666,190.671 136.865,197.499 136.865,205.922 C136.865,214.344 143.666,221.172 152.055,221.172 C160.444,221.172 167.244,214.344 167.244,205.922 C167.244,197.499 160.444,190.671 152.055,190.671 ZM60.917,205.922 C60.917,214.344 67.718,221.172 76.107,221.172 C84.496,221.172 91.296,214.344 91.296,205.922 C91.296,197.499 84.496,190.671 76.107,190.671 C67.718,190.671 60.917,197.499 60.917,205.922 ZM22.943,190.671 C14.554,190.671 7.754,197.499 7.754,205.922 C7.754,214.344 14.554,221.172 22.943,221.172 C31.332,221.172 38.133,214.344 38.133,205.922 C38.133,197.499 31.332,190.671 22.943,190.671 ZM41.930,148.733 C48.625,148.737 55.170,146.756 60.746,143.037 C60.080,135.279 53.479,129.404 45.728,129.670 L38.133,129.670 C30.381,129.404 23.780,135.279 23.114,143.037 C28.690,146.756 35.236,148.737 41.930,148.733 ZM53.322,106.795 C53.322,100.478 48.222,95.357 41.930,95.357 C35.638,95.357 30.538,100.478 30.538,106.795 C30.538,113.112 35.638,118.233 41.930,118.233 C48.222,118.233 53.322,113.112 53.322,106.795 ZM67.346,91.467 C54.732,77.387 33.137,76.239 19.113,88.904 C5.089,101.569 3.946,123.250 16.560,137.330 C18.867,130.212 24.629,124.765 31.844,122.880 C29.417,121.352 27.365,119.293 25.843,116.856 C20.273,107.936 22.960,96.171 31.844,90.578 C40.729,84.986 52.447,87.683 58.017,96.603 C63.587,105.523 60.901,117.288 52.016,122.880 C59.231,124.766 64.992,130.212 67.301,137.330 C72.965,131.054 76.103,122.889 76.107,114.420 C76.112,105.945 72.991,97.768 67.346,91.467 ZM114.081,76.295 C120.775,76.298 127.321,74.317 132.897,70.599 C132.230,62.841 125.629,56.966 117.878,57.232 L110.283,57.232 C102.532,56.966 95.931,62.841 95.265,70.599 C100.841,74.317 107.387,76.298 114.081,76.295 ZM125.473,34.357 C125.473,28.040 120.372,22.919 114.081,22.919 C107.789,22.919 102.689,28.040 102.689,34.357 C102.689,40.673 107.789,45.794 114.081,45.794 C120.372,45.794 125.473,40.674 125.473,34.357 ZM139.451,18.910 C126.804,4.842 105.193,3.732 91.181,16.429 C77.170,29.126 76.064,50.823 88.710,64.891 C91.018,57.773 96.779,52.327 103.995,50.442 C101.567,48.914 99.516,46.854 97.994,44.417 C92.424,35.497 95.110,23.732 103.995,18.140 C112.879,12.547 124.597,15.245 130.167,24.165 C135.738,33.085 133.051,44.849 124.167,50.442 C131.382,52.328 137.143,57.774 139.451,64.891 C151.193,51.830 151.193,31.970 139.451,18.910 ZM190.029,205.922 C190.029,214.344 196.829,221.172 205.218,221.172 C213.608,221.172 220.408,214.344 220.408,205.922 C220.408,197.499 213.607,190.671 205.218,190.671 C196.829,190.671 190.029,197.499 190.029,205.922 ZM186.231,148.733 C192.926,148.737 199.471,146.756 205.047,143.037 C204.381,135.279 197.780,129.404 190.029,129.670 L182.434,129.670 C174.682,129.404 168.082,135.279 167.415,143.037 C172.991,146.756 179.537,148.737 186.231,148.733 ZM197.623,106.795 C197.623,100.478 192.523,95.357 186.231,95.357 C179.939,95.357 174.839,100.478 174.839,106.795 C174.839,113.112 179.939,118.233 186.231,118.233 C192.523,118.233 197.623,113.112 197.623,106.795 ZM211.602,91.349 C198.955,77.281 177.344,76.170 163.332,88.868 C149.320,101.565 148.214,123.262 160.861,137.330 C163.168,130.211 168.930,124.765 176.145,122.880 C173.718,121.352 171.666,119.293 170.144,116.856 C164.574,107.936 167.261,96.171 176.145,90.578 C185.030,84.986 196.748,87.683 202.318,96.603 C207.888,105.523 205.202,117.288 196.317,122.880 C203.532,124.766 209.293,130.212 211.602,137.330 C223.343,124.270 223.343,104.409 211.602,91.349 ZM212.813,205.922 C212.813,210.133 209.413,213.547 205.218,213.547 C201.024,213.547 197.623,210.133 197.623,205.922 C197.623,201.710 201.024,198.296 205.218,198.296 C209.413,198.296 212.813,201.710 212.813,205.922 ZM22.943,213.547 C18.749,213.547 15.348,210.133 15.348,205.922 C15.348,201.710 18.749,198.296 22.943,198.296 C27.138,198.296 30.538,201.710 30.538,205.922 C30.538,210.133 27.138,213.547 22.943,213.547 ZM76.107,198.296 C80.301,198.296 83.702,201.710 83.702,205.922 C83.702,210.133 80.301,213.547 76.107,213.547 C71.912,213.547 68.512,210.133 68.512,205.922 C68.512,201.710 71.912,198.296 76.107,198.296 ZM152.055,213.547 C147.860,213.547 144.460,210.133 144.460,205.922 C144.460,201.710 147.860,198.296 152.055,198.296 C156.249,198.296 159.649,201.710 159.649,205.922 C159.649,210.133 156.249,213.547 152.055,213.547 ZM114.081,114.420 C111.984,114.420 110.283,112.713 110.283,110.608 L110.283,95.357 C110.283,93.252 111.984,91.545 114.081,91.545 C116.178,91.545 117.878,93.251 117.878,95.357 L117.878,110.608 C117.878,112.713 116.178,114.420 114.081,114.420 ZM117.878,141.108 C117.878,143.214 116.178,144.921 114.081,144.921 C111.984,144.921 110.283,143.214 110.283,141.108 L110.283,125.858 C110.283,123.753 111.984,122.045 114.081,122.045 C116.178,122.045 117.878,123.752 117.878,125.858 L117.878,141.108 ZM110.283,170.030 L110.283,156.358 C110.283,154.253 111.984,152.546 114.081,152.546 C116.178,152.546 117.878,154.253 117.878,156.358 L117.878,170.030 L128.158,180.351 C129.579,181.828 129.579,184.171 128.158,185.648 C126.700,187.163 124.297,187.205 122.788,185.742 L114.081,177.000 L105.373,185.742 C105.343,185.773 105.312,185.805 105.280,185.835 C103.772,187.298 101.367,187.256 99.911,185.742 C98.454,184.227 98.495,181.813 100.004,180.351 L110.283,170.030 Z"/>
</svg>