<svg 
 xmlns="http://www.w3.org/2000/svg"
 xmlns:xlink="http://www.w3.org/1999/xlink"
 width="198px" height="217px">
<path fill-rule="evenodd"  fill="rgb(255, 255, 255)"
 d="M163.551,65.146 C165.305,65.146 166.725,66.569 166.725,68.325 C166.725,70.080 165.305,71.503 163.551,71.503 L125.599,71.503 C123.846,71.503 122.425,70.080 122.425,68.325 C122.425,66.569 123.846,65.146 125.599,65.146 L163.551,65.146 ZM120.831,52.673 C120.831,50.918 122.252,49.495 124.005,49.495 L178.859,49.495 C180.612,49.495 182.033,50.918 182.033,52.673 C182.033,54.429 180.612,55.852 178.859,55.852 L124.005,55.852 C122.252,55.852 120.831,54.429 120.831,52.673 ZM185.050,87.604 L139.255,87.604 C137.329,95.924 129.845,102.079 121.068,102.079 C118.836,102.079 116.649,101.686 114.567,100.912 C113.411,100.482 112.608,99.419 112.509,98.187 C112.410,96.955 113.033,95.777 114.106,95.168 C117.019,93.512 119.099,90.761 119.944,87.604 L117.813,87.604 C110.672,87.604 104.863,81.786 104.863,74.635 L104.863,46.363 C104.863,39.212 110.672,33.394 117.813,33.394 L159.467,33.394 L159.467,12.906 C159.467,9.295 156.532,6.357 152.925,6.357 L132.167,6.357 L125.760,20.293 C124.025,24.067 120.223,26.506 116.075,26.506 L81.925,26.506 C77.776,26.506 73.975,24.067 72.240,20.293 L65.833,6.357 L45.076,6.357 C41.469,6.357 38.533,9.295 38.533,12.906 L38.533,105.385 C38.533,107.140 37.113,108.563 35.360,108.563 C33.607,108.563 32.186,107.140 32.186,105.385 L32.186,12.906 C32.186,5.789 37.968,-0.000 45.076,-0.000 L67.866,-0.000 L130.135,-0.000 L152.925,-0.000 C160.032,-0.000 165.814,5.789 165.814,12.906 L165.814,33.393 L180.085,33.393 C181.838,33.393 183.259,34.816 183.259,36.572 C183.259,38.327 181.838,39.750 180.085,39.750 L117.813,39.750 C114.172,39.750 111.211,42.716 111.211,46.362 L111.211,74.634 C111.211,78.280 114.172,81.246 117.813,81.246 L123.536,81.246 C125.289,81.246 126.710,82.669 126.710,84.425 C126.710,88.495 125.377,92.389 123.026,95.564 C128.591,94.665 132.975,90.002 133.361,84.213 C133.472,82.544 134.857,81.247 136.528,81.247 L185.051,81.247 C188.692,81.247 191.653,78.280 191.653,74.634 L191.653,46.363 C191.653,44.629 190.987,42.990 189.780,41.748 C188.557,40.491 188.583,38.478 189.838,37.254 C191.093,36.029 193.102,36.055 194.325,37.312 C196.695,39.747 198.000,42.962 198.000,46.363 L198.000,74.635 C198.000,81.786 192.191,87.604 185.050,87.604 ZM72.821,6.357 L78.005,17.634 C78.708,19.162 80.246,20.149 81.925,20.149 L116.075,20.149 C117.754,20.149 119.292,19.162 119.994,17.634 L125.179,6.357 L72.821,6.357 ZM70.484,86.556 C56.139,86.556 44.468,74.867 44.468,60.499 C44.468,46.131 56.139,34.442 70.484,34.442 C84.829,34.442 96.501,46.131 96.501,60.499 C96.501,74.867 84.830,86.556 70.484,86.556 ZM70.484,40.800 C59.638,40.800 50.815,49.637 50.815,60.499 C50.815,71.362 59.638,80.199 70.484,80.199 C81.329,80.199 90.153,71.362 90.153,60.499 C90.153,49.637 81.329,40.800 70.484,40.800 ZM80.037,60.300 C78.284,60.300 76.863,58.877 76.863,57.122 L76.863,55.132 C76.863,53.376 78.284,51.953 80.037,51.953 C81.790,51.953 83.211,53.376 83.211,55.132 L83.211,57.122 C83.211,58.877 81.790,60.300 80.037,60.300 ZM81.181,65.488 C82.502,66.642 82.639,68.650 81.487,69.973 C78.639,73.243 74.629,75.118 70.484,75.118 C66.339,75.118 62.329,73.243 59.481,69.973 C58.329,68.650 58.466,66.642 59.787,65.488 C61.107,64.334 63.112,64.471 64.265,65.794 C65.931,67.707 68.140,68.761 70.484,68.761 C72.828,68.761 75.037,67.707 76.703,65.794 C77.856,64.471 79.861,64.334 81.181,65.488 ZM60.333,60.300 C58.580,60.300 57.159,58.877 57.159,57.122 L57.159,55.132 C57.159,53.376 58.580,51.953 60.333,51.953 C62.086,51.953 63.507,53.376 63.507,55.132 L63.507,57.122 C63.507,58.877 62.086,60.300 60.333,60.300 ZM120.894,198.765 C120.894,200.520 119.473,201.943 117.720,201.943 L80.282,201.943 C78.528,201.943 77.108,200.520 77.108,198.765 C77.108,197.009 78.528,195.586 80.282,195.586 L117.720,195.586 C119.473,195.586 120.894,197.009 120.894,198.765 ZM127.517,115.969 C141.863,115.969 153.534,127.659 153.533,142.026 C153.533,156.394 141.862,168.083 127.517,168.083 C113.171,168.083 101.500,156.394 101.500,142.026 C101.500,127.659 113.171,115.969 127.517,115.969 ZM127.517,161.726 C138.362,161.726 147.186,152.889 147.186,142.026 C147.186,131.164 138.362,122.327 127.517,122.327 C116.671,122.327 107.848,131.164 107.848,142.026 C107.848,152.889 116.671,161.726 127.517,161.726 ZM117.964,133.480 C119.717,133.480 121.137,134.904 121.137,136.659 L121.137,138.649 C121.137,140.404 119.717,141.828 117.964,141.828 C116.210,141.828 114.790,140.404 114.790,138.649 L114.790,136.659 C114.790,134.904 116.210,133.480 117.964,133.480 ZM116.820,147.015 C118.141,145.862 120.145,145.998 121.298,147.321 C122.964,149.234 125.173,150.288 127.517,150.288 C129.862,150.288 132.070,149.234 133.736,147.321 C134.889,145.998 136.893,145.861 138.214,147.015 C139.535,148.169 139.672,150.177 138.520,151.500 C135.672,154.770 131.662,156.645 127.517,156.645 C123.372,156.645 119.362,154.770 116.514,151.500 C115.362,150.177 115.499,148.169 116.820,147.015 ZM134.494,138.649 L134.494,136.659 C134.494,134.904 135.915,133.480 137.668,133.480 C139.421,133.480 140.842,134.904 140.842,136.659 L140.842,138.649 C140.842,140.404 139.421,141.828 137.668,141.828 C135.915,141.828 134.494,140.404 134.494,138.649 ZM72.402,146.673 C74.155,146.673 75.576,148.097 75.576,149.852 C75.576,151.607 74.155,153.031 72.402,153.031 L34.450,153.031 C32.697,153.031 31.276,151.607 31.276,149.852 C31.276,148.097 32.697,146.673 34.450,146.673 L72.402,146.673 ZM15.967,134.200 C15.967,132.445 17.388,131.022 19.141,131.022 L73.996,131.022 C75.749,131.022 77.170,132.445 77.170,134.200 C77.170,135.956 75.749,137.379 73.996,137.379 L19.141,137.379 C17.388,137.379 15.967,135.956 15.967,134.200 ZM93.137,127.890 L93.137,156.162 C93.137,163.313 87.328,169.132 80.187,169.132 L78.056,169.132 C78.901,172.288 80.981,175.039 83.893,176.695 C84.967,177.305 85.589,178.482 85.490,179.714 C85.392,180.946 84.589,182.009 83.433,182.439 C81.351,183.214 79.164,183.606 76.932,183.606 C68.154,183.606 60.672,177.451 58.745,169.132 L38.533,169.132 L38.533,204.094 C38.533,207.705 41.469,210.642 45.076,210.642 L152.925,210.642 C156.532,210.642 159.467,207.705 159.467,204.094 L159.467,97.078 C159.467,95.322 160.888,93.899 162.641,93.899 C164.394,93.899 165.815,95.322 165.814,97.078 L165.814,204.094 C165.814,211.210 160.032,217.000 152.925,217.000 L45.076,217.000 C37.968,217.000 32.186,211.211 32.186,204.094 L32.186,169.132 L12.949,169.132 C5.809,169.132 0.000,163.314 0.000,156.162 L0.000,144.437 C0.000,142.681 1.421,141.258 3.174,141.258 C4.927,141.258 6.348,142.681 6.348,144.437 L6.348,156.162 C6.348,159.808 9.309,162.774 12.949,162.774 L61.473,162.774 C63.144,162.774 64.528,164.071 64.640,165.741 C65.026,171.529 69.410,176.193 74.974,177.092 C72.624,173.917 71.291,170.023 71.291,165.953 C71.291,164.197 72.712,162.774 74.465,162.774 L80.188,162.774 C83.828,162.774 86.790,159.808 86.790,156.162 L86.790,127.890 C86.790,124.245 83.828,121.278 80.188,121.278 L12.949,121.278 C9.309,121.278 6.348,124.244 6.348,127.890 L6.348,131.722 C6.348,133.478 4.927,134.901 3.174,134.901 C1.421,134.901 0.000,133.478 0.000,131.722 L0.000,127.890 C0.000,120.739 5.809,114.921 12.949,114.921 L80.187,114.921 C87.328,114.921 93.137,120.739 93.137,127.890 Z"/>
</svg>