<svg 
 xmlns="http://www.w3.org/2000/svg"
 xmlns:xlink="http://www.w3.org/1999/xlink"
 width="97px" height="106px">
<path fill-rule="evenodd"  fill="rgb(149, 21, 69)"
 d="M80.124,31.823 C80.982,31.823 81.678,32.518 81.678,33.375 C81.678,34.233 80.982,34.928 80.124,34.928 L61.531,34.928 C60.672,34.928 59.976,34.233 59.976,33.375 C59.976,32.518 60.672,31.823 61.531,31.823 L80.124,31.823 ZM59.195,25.730 C59.195,24.872 59.891,24.177 60.750,24.177 L87.623,24.177 C88.482,24.177 89.178,24.872 89.178,25.730 C89.178,26.587 88.482,27.282 87.623,27.282 L60.750,27.282 C59.891,27.282 59.195,26.587 59.195,25.730 ZM90.656,42.793 L68.221,42.793 C67.277,46.857 63.611,49.863 59.311,49.863 C58.218,49.863 57.146,49.672 56.126,49.293 C55.560,49.083 55.167,48.564 55.118,47.962 C55.069,47.361 55.375,46.785 55.901,46.487 C57.328,45.678 58.346,44.335 58.760,42.793 L57.716,42.793 C54.218,42.793 51.372,39.951 51.372,36.457 L51.372,22.648 C51.372,19.154 54.218,16.312 57.716,16.312 L78.123,16.312 L78.123,6.304 C78.123,4.540 76.685,3.105 74.918,3.105 L64.749,3.105 L61.610,9.913 C60.760,11.756 58.897,12.947 56.865,12.947 L40.135,12.947 C38.103,12.947 36.240,11.756 35.390,9.913 L32.252,3.105 L22.082,3.105 C20.315,3.105 18.877,4.540 18.877,6.304 L18.877,51.478 C18.877,52.336 18.182,53.031 17.323,53.031 C16.464,53.031 15.768,52.336 15.768,51.478 L15.768,6.304 C15.768,2.828 18.600,-0.000 22.082,-0.000 L33.248,-0.000 L63.753,-0.000 L74.918,-0.000 C78.400,-0.000 81.232,2.828 81.232,6.304 L81.232,16.312 L88.223,16.312 C89.082,16.312 89.778,17.007 89.778,17.864 C89.778,18.722 89.082,19.417 88.223,19.417 L57.716,19.417 C55.933,19.417 54.482,20.866 54.482,22.647 L54.482,36.457 C54.482,38.238 55.933,39.687 57.716,39.687 L60.520,39.687 C61.379,39.687 62.075,40.382 62.075,41.240 C62.075,43.228 61.422,45.130 60.271,46.681 C62.996,46.242 65.144,43.964 65.333,41.136 C65.388,40.321 66.066,39.687 66.885,39.687 L90.656,39.687 C92.440,39.687 93.891,38.238 93.891,36.457 L93.891,22.647 C93.891,21.800 93.565,21.000 92.973,20.393 C92.374,19.779 92.386,18.796 93.001,18.197 C93.616,17.599 94.601,17.612 95.200,18.226 C96.361,19.416 97.000,20.986 97.000,22.648 L97.000,36.457 C97.000,39.951 94.154,42.793 90.656,42.793 ZM35.675,3.105 L38.215,8.614 C38.559,9.360 39.312,9.842 40.135,9.842 L56.865,9.842 C57.687,9.842 58.441,9.360 58.785,8.614 L61.325,3.105 L35.675,3.105 ZM34.530,42.281 C27.502,42.281 21.785,36.571 21.785,29.553 C21.785,22.534 27.502,16.824 34.530,16.824 C41.558,16.824 47.276,22.534 47.276,29.553 C47.276,36.571 41.558,42.281 34.530,42.281 ZM34.530,19.930 C29.217,19.930 24.894,24.247 24.894,29.553 C24.894,34.859 29.217,39.175 34.530,39.175 C39.843,39.175 44.166,34.859 44.166,29.553 C44.166,24.247 39.843,19.930 34.530,19.930 ZM39.210,29.455 C38.351,29.455 37.655,28.760 37.655,27.903 L37.655,26.931 C37.655,26.073 38.351,25.378 39.210,25.378 C40.069,25.378 40.765,26.073 40.765,26.931 L40.765,27.903 C40.765,28.760 40.069,29.455 39.210,29.455 ZM39.770,31.989 C40.418,32.553 40.485,33.534 39.920,34.180 C38.525,35.777 36.561,36.693 34.530,36.693 C32.499,36.693 30.535,35.777 29.140,34.180 C28.575,33.534 28.642,32.553 29.290,31.989 C29.936,31.426 30.918,31.493 31.483,32.139 C32.299,33.074 33.382,33.588 34.530,33.588 C35.678,33.588 36.760,33.074 37.577,32.139 C38.141,31.493 39.124,31.426 39.770,31.989 ZM29.557,29.455 C28.698,29.455 28.002,28.760 28.002,27.903 L28.002,26.931 C28.002,26.073 28.698,25.378 29.557,25.378 C30.416,25.378 31.112,26.073 31.112,26.931 L31.112,27.903 C31.112,28.760 30.416,29.455 29.557,29.455 ZM59.226,97.092 C59.226,97.950 58.530,98.645 57.671,98.645 L39.330,98.645 C38.471,98.645 37.775,97.950 37.775,97.092 C37.775,96.235 38.471,95.540 39.330,95.540 L57.671,95.540 C58.530,95.540 59.226,96.235 59.226,97.092 ZM62.470,56.649 C69.498,56.649 75.216,62.358 75.216,69.377 C75.216,76.395 69.498,82.105 62.470,82.105 C55.442,82.105 49.725,76.395 49.725,69.377 C49.725,62.358 55.442,56.649 62.470,56.649 ZM62.470,79.000 C67.783,79.000 72.106,74.683 72.106,69.377 C72.106,64.071 67.783,59.754 62.470,59.754 C57.157,59.754 52.835,64.071 52.835,69.377 C52.835,74.683 57.157,79.000 62.470,79.000 ZM57.790,65.202 C58.649,65.202 59.345,65.898 59.345,66.755 L59.345,67.727 C59.345,68.585 58.649,69.280 57.790,69.280 C56.931,69.280 56.235,68.585 56.235,67.727 L56.235,66.755 C56.235,65.898 56.931,65.202 57.790,65.202 ZM59.424,71.963 C60.240,72.898 61.322,73.413 62.471,73.413 C63.619,73.413 64.701,72.898 65.517,71.963 C66.082,71.317 67.064,71.250 67.711,71.814 C68.358,72.377 68.425,73.358 67.861,74.004 C66.466,75.602 64.501,76.518 62.471,76.518 C60.440,76.518 58.475,75.602 57.080,74.004 C56.516,73.358 56.583,72.377 57.230,71.814 C57.877,71.250 58.859,71.317 59.424,71.963 ZM65.889,67.727 L65.889,66.755 C65.889,65.898 66.585,65.202 67.443,65.202 C68.302,65.202 68.998,65.898 68.998,66.755 L68.998,67.727 C68.998,68.585 68.302,69.280 67.443,69.280 C66.585,69.280 65.889,68.585 65.889,67.727 ZM35.470,71.647 C36.329,71.647 37.025,72.342 37.025,73.200 C37.025,74.057 36.329,74.752 35.470,74.752 L16.877,74.752 C16.018,74.752 15.322,74.057 15.322,73.200 C15.322,72.342 16.018,71.647 16.877,71.647 L35.470,71.647 ZM7.822,65.554 C7.822,64.696 8.518,64.001 9.377,64.001 L36.250,64.001 C37.109,64.001 37.805,64.696 37.805,65.554 C37.805,66.412 37.109,67.107 36.250,67.107 L9.377,67.107 C8.518,67.107 7.822,66.412 7.822,65.554 ZM45.628,62.472 L45.628,76.282 C45.628,79.775 42.782,82.617 39.284,82.617 L38.240,82.617 C38.653,84.159 39.672,85.503 41.099,86.312 C41.625,86.610 41.930,87.185 41.882,87.787 C41.833,88.388 41.440,88.907 40.873,89.118 C39.854,89.496 38.782,89.688 37.689,89.688 C33.389,89.688 29.723,86.681 28.779,82.617 L18.877,82.617 L18.877,99.696 C18.877,101.459 20.315,102.895 22.082,102.895 L74.918,102.895 C76.685,102.895 78.123,101.459 78.123,99.696 L78.123,47.420 C78.123,46.563 78.819,45.868 79.678,45.868 C80.536,45.868 81.233,46.563 81.232,47.420 L81.232,99.696 C81.232,103.172 78.400,106.000 74.918,106.000 L22.082,106.000 C18.600,106.000 15.768,103.172 15.768,99.696 L15.768,82.617 L6.344,82.617 C2.846,82.617 -0.000,79.775 -0.000,76.282 L-0.000,70.554 C-0.000,69.697 0.696,69.002 1.555,69.002 C2.414,69.002 3.110,69.697 3.110,70.554 L3.110,76.282 C3.110,78.063 4.560,79.512 6.344,79.512 L30.116,79.512 C30.934,79.512 31.612,80.146 31.667,80.961 C31.856,83.788 34.004,86.067 36.730,86.506 C35.578,84.955 34.925,83.053 34.925,81.064 C34.925,80.207 35.621,79.512 36.480,79.512 L39.284,79.512 C41.067,79.512 42.518,78.063 42.518,76.282 L42.518,62.472 C42.518,60.691 41.067,59.242 39.284,59.242 L6.344,59.242 C4.560,59.242 3.110,60.691 3.110,62.472 L3.110,64.344 C3.110,65.201 2.414,65.896 1.555,65.896 C0.696,65.896 -0.000,65.201 -0.000,64.344 L-0.000,62.472 C-0.000,58.979 2.846,56.136 6.344,56.136 L39.284,56.136 C42.782,56.136 45.628,58.978 45.628,62.472 Z"/>
</svg>