<svg 
 xmlns="http://www.w3.org/2000/svg"
 xmlns:xlink="http://www.w3.org/1999/xlink"
 width="25px" height="31px">
<path fill-rule="evenodd"  fill="rgb(157, 169, 178)"
 d="M21.580,24.473 C19.153,27.685 15.989,29.994 12.671,30.975 C12.615,30.992 12.558,31.000 12.500,31.000 C12.442,31.000 12.385,30.992 12.329,30.975 C9.010,29.994 5.846,27.685 3.420,24.473 C1.183,21.511 -0.000,17.993 -0.000,14.300 L-0.000,6.608 C-0.000,6.284 0.266,6.022 0.595,6.022 C3.564,6.022 6.363,5.225 8.915,3.653 C10.451,2.707 11.444,1.752 11.868,1.344 C12.033,1.185 12.101,1.119 12.186,1.067 C12.378,0.950 12.621,0.950 12.813,1.067 C12.937,1.142 13.054,1.257 13.287,1.486 C14.432,2.607 17.918,6.022 24.405,6.022 C24.733,6.022 25.000,6.284 25.000,6.608 L25.000,14.300 C25.000,17.993 23.817,21.511 21.580,24.473 ZM23.809,7.185 C17.312,6.988 13.751,3.592 12.503,2.371 C11.975,2.871 10.986,3.761 9.546,4.648 C6.973,6.232 4.165,7.084 1.190,7.184 L1.190,14.300 C1.190,17.739 2.292,21.015 4.375,23.773 C6.607,26.728 9.487,28.863 12.500,29.800 C15.513,28.863 18.392,26.728 20.625,23.773 C22.708,21.015 23.809,17.739 23.809,14.300 L23.809,7.185 ZM12.699,28.324 C12.634,28.346 12.567,28.357 12.500,28.357 C12.433,28.357 12.365,28.346 12.301,28.324 C9.631,27.392 7.221,25.576 5.331,23.073 C3.919,21.204 3.008,19.029 2.618,16.755 C2.477,16.648 2.381,16.487 2.381,16.299 L2.381,8.814 C2.381,8.517 2.606,8.267 2.905,8.232 C6.021,7.864 9.293,6.488 12.120,4.356 C12.336,4.194 12.637,4.196 12.851,4.362 C15.705,6.580 18.813,7.886 22.089,8.243 C22.391,8.276 22.619,8.527 22.619,8.826 L22.619,14.300 C22.619,17.485 21.599,20.518 19.669,23.072 C17.779,25.575 15.369,27.392 12.699,28.324 ZM21.428,9.343 C18.261,8.904 15.254,7.632 12.477,5.559 C9.051,8.041 5.836,8.986 3.571,9.326 L3.571,15.671 C3.620,15.744 3.657,15.826 3.668,15.918 C3.948,18.245 4.853,20.477 6.286,22.373 C7.987,24.626 10.132,26.273 12.500,27.147 C14.868,26.273 17.013,24.625 18.714,22.372 C20.490,20.022 21.428,17.231 21.428,14.300 L21.428,9.343 ZM15.799,16.795 L16.380,20.129 C16.418,20.349 16.326,20.571 16.143,20.703 C15.959,20.834 15.716,20.851 15.516,20.747 L12.477,19.173 L9.437,20.747 C9.350,20.792 9.255,20.815 9.160,20.815 C9.037,20.815 8.914,20.777 8.810,20.703 C8.627,20.571 8.535,20.349 8.573,20.129 L9.154,16.795 L6.695,14.433 C6.532,14.278 6.474,14.045 6.544,13.832 C6.614,13.620 6.800,13.465 7.025,13.433 L10.423,12.947 L11.943,9.913 C12.043,9.713 12.250,9.587 12.477,9.587 C12.703,9.587 12.910,9.713 13.010,9.914 L14.530,12.947 L17.928,13.433 C18.153,13.465 18.339,13.620 18.409,13.832 C18.479,14.045 18.420,14.278 18.258,14.433 L15.799,16.795 ZM14.049,14.063 C13.855,14.036 13.687,13.916 13.601,13.742 L12.477,11.498 L11.352,13.743 C11.265,13.916 11.098,14.036 10.904,14.063 L8.389,14.423 L10.209,16.170 C10.349,16.305 10.413,16.499 10.380,16.689 L9.950,19.156 L12.200,17.991 C12.373,17.902 12.580,17.902 12.754,17.991 L15.002,19.156 L14.573,16.689 C14.540,16.499 14.604,16.305 14.744,16.170 L16.563,14.423 L14.049,14.063 Z"/>
</svg>