<svg 
 xmlns="http://www.w3.org/2000/svg"
 xmlns:xlink="http://www.w3.org/1999/xlink"
 width="20px" height="17px">
<path fill-rule="evenodd"  fill="rgb(24, 50, 83)"
 d="M0.354,8.151 L4.966,9.831 L6.752,15.431 C6.866,15.790 7.315,15.922 7.614,15.684 L10.185,13.640 C10.455,13.426 10.838,13.415 11.120,13.614 L15.757,16.899 C16.077,17.125 16.529,16.954 16.609,16.578 L20.006,0.639 C20.094,0.227 19.680,-0.115 19.278,0.036 L0.348,7.159 C-0.119,7.335 -0.115,7.980 0.354,8.151 ZM6.464,8.937 L15.478,3.521 C15.640,3.424 15.807,3.638 15.668,3.763 L8.228,10.509 C7.967,10.747 7.798,11.064 7.750,11.409 L7.497,13.241 C7.463,13.486 7.111,13.510 7.042,13.273 L6.067,9.933 C5.956,9.551 6.118,9.145 6.464,8.937 Z"/>
</svg>