<svg 
 xmlns="http://www.w3.org/2000/svg"
 xmlns:xlink="http://www.w3.org/1999/xlink"
 width="34px" height="34px">
<path fill-rule="evenodd"  fill="rgb(45, 82, 126)"
 d="M16.999,0.004 C7.628,0.004 0.004,7.628 0.004,16.999 C0.004,26.370 7.628,33.994 16.999,33.994 C26.370,33.994 33.995,26.370 33.995,16.999 C33.995,7.628 26.370,0.004 16.999,0.004 ZM24.581,13.109 C24.588,13.277 24.592,13.448 24.592,13.617 C24.592,18.786 20.658,24.746 13.462,24.746 C11.253,24.746 9.196,24.099 7.466,22.989 C7.772,23.025 8.083,23.044 8.399,23.044 C10.232,23.044 11.918,22.418 13.257,21.369 C11.546,21.338 10.101,20.207 9.603,18.652 C9.841,18.699 10.087,18.723 10.338,18.723 C10.695,18.723 11.041,18.675 11.369,18.586 C9.580,18.226 8.232,16.646 8.232,14.751 C8.232,14.734 8.232,14.717 8.232,14.702 C8.760,14.994 9.363,15.170 10.003,15.190 C8.955,14.490 8.264,13.292 8.264,11.935 C8.264,11.217 8.456,10.545 8.793,9.967 C10.722,12.335 13.605,13.892 16.855,14.056 C16.788,13.769 16.755,13.471 16.755,13.164 C16.755,11.004 18.506,9.252 20.666,9.252 C21.791,9.252 22.808,9.727 23.521,10.487 C24.413,10.312 25.250,9.988 26.006,9.538 C25.713,10.452 25.094,11.217 24.285,11.702 C25.077,11.608 25.832,11.398 26.532,11.087 C26.009,11.870 25.345,12.559 24.581,13.109 Z"/>
</svg>