<svg 
 xmlns="http://www.w3.org/2000/svg"
 xmlns:xlink="http://www.w3.org/1999/xlink"
 width="24px" height="24px">
<path fill-rule="evenodd"  fill="#002e53"
 d="M23.938,20.565 C23.832,20.058 23.336,19.733 22.829,19.838 C22.322,19.944 21.997,20.440 22.102,20.947 C22.163,21.239 22.091,21.538 21.904,21.768 C21.795,21.901 21.554,22.125 21.154,22.125 L2.846,22.125 C2.446,22.125 2.204,21.901 2.096,21.768 C1.909,21.538 1.837,21.239 1.897,20.947 C2.870,16.274 6.992,12.860 11.751,12.745 C11.834,12.748 11.917,12.750 12.000,12.750 C12.083,12.750 12.166,12.748 12.249,12.745 C15.602,12.825 18.701,14.524 20.577,17.323 C20.866,17.753 21.448,17.868 21.878,17.579 C22.308,17.291 22.423,16.709 22.135,16.279 C20.597,13.984 18.363,12.316 15.816,11.478 C17.368,10.314 18.374,8.460 18.374,6.375 C18.374,2.860 15.515,-0.000 12.000,-0.000 C8.485,-0.000 5.626,2.860 5.626,6.375 C5.626,8.461 6.633,10.316 8.186,11.480 C6.763,11.949 5.427,12.678 4.258,13.640 C2.115,15.403 0.625,17.862 0.062,20.565 C-0.114,21.412 0.097,22.282 0.641,22.951 C1.183,23.618 1.987,24.000 2.846,24.000 L21.154,24.000 C22.013,24.000 22.816,23.618 23.358,22.951 C23.903,22.282 24.114,21.412 23.938,20.565 ZM7.500,6.375 C7.500,3.893 9.519,1.875 12.000,1.875 C14.481,1.875 16.499,3.893 16.499,6.375 C16.499,8.780 14.603,10.750 12.228,10.869 C12.152,10.868 12.076,10.867 12.000,10.867 C11.924,10.867 11.849,10.868 11.773,10.869 C9.397,10.751 7.500,8.780 7.500,6.375 Z"/>
</svg>